<svg xmlns="http://www.w3.org/2000/svg" width="1200" height="700" viewBox="0 0 1200 700"><rect width="100%" height="100%" fill="#1e293b"/><path fill="#ffffff" d="M268.89 356.645q.66 0 1.17.51l3.18 3.45q-2.64 3.27-6.5 5.01-3.85 1.74-9.25 1.74-4.83 0-8.69-1.65-3.85-1.65-6.58-4.59t-4.19-7.02q-1.45-4.08-1.45-8.91 0-4.89 1.56-8.95 1.56-4.07 4.39-7.01 2.84-2.94 6.77-4.58 3.93-1.63 8.7-1.63 4.74 0 8.41 1.56 3.68 1.56 6.26 4.08l-2.7 3.75q-.24.36-.62.63-.37.27-1.03.27-.45 0-.93-.25-.48-.26-1.05-.63-.57-.38-1.32-.83t-1.74-.82q-.99-.38-2.3-.63-1.3-.26-3.01-.26-2.91 0-5.33 1.04-2.41 1.03-4.15 3-1.74 1.96-2.7 4.8-.96 2.83-.96 6.46 0 3.66 1.03 6.51 1.04 2.85 2.81 4.8t4.17 2.99q2.4 1.03 5.16 1.03 1.65 0 2.98-.18 1.34-.18 2.46-.57 1.13-.39 2.13-1.01 1.01-.61 2-1.51.3-.27.63-.43.33-.17.69-.17m24.99 2.28v-5.19q-3.21.15-5.4.56-2.19.4-3.51 1.03t-1.89 1.47-.57 1.83q0 1.95 1.15 2.79 1.16.84 3.02.84 2.28 0 3.94-.82 1.67-.83 3.26-2.51m-15.66-16.17-1.32-2.37q5.31-4.86 12.78-4.86 2.7 0 4.83.89 2.13.88 3.6 2.46 1.47 1.57 2.23 3.76.77 2.19.77 4.8v19.44h-3.36q-1.05 0-1.62-.32-.57-.31-.9-1.27l-.66-2.22q-1.17 1.05-2.28 1.85-1.11.79-2.31 1.33t-2.57.83q-1.36.28-3.01.28-1.95 0-3.6-.52-1.65-.53-2.85-1.58t-1.86-2.61-.66-3.63q0-1.17.39-2.33.39-1.15 1.27-2.2.89-1.05 2.3-1.98t3.46-1.62q2.06-.69 4.79-1.12 2.73-.44 6.24-.53v-1.8q0-3.09-1.32-4.58-1.32-1.48-3.81-1.48-1.8 0-2.99.42-1.18.42-2.08.95-.9.52-1.64.94-.73.42-1.63.42-.78 0-1.32-.41-.54-.4-.87-.94m40.11 24.6q-4.02 0-6.17-2.26-2.14-2.27-2.14-6.26v-17.19h-3.15q-.6 0-1.02-.39t-.42-1.17v-2.94l4.95-.81 1.56-8.4q.15-.6.57-.93t1.08-.33h3.84v9.69h8.22v5.28h-8.22v16.68q0 1.44.7 2.25.71.81 1.94.81.69 0 1.15-.16.47-.17.81-.35.35-.18.62-.34.27-.17.54-.17.33 0 .54.17.21.16.45.49l2.22 3.6q-1.62 1.35-3.72 2.04t-4.35.69m17.91-19.41h13.98q0-1.44-.41-2.71-.4-1.28-1.21-2.24t-2.06-1.51q-1.24-.56-2.89-.56-3.21 0-5.06 1.83-1.84 1.83-2.35 5.19m18.9 4.47h-19.05q.18 2.37.84 4.09.66 1.73 1.74 2.86 1.08 1.12 2.56 1.68 1.49.55 3.29.55t3.1-.42q1.31-.42 2.28-.93.98-.51 1.71-.93.74-.42 1.43-.42.93 0 1.38.69l2.13 2.7q-1.23 1.44-2.76 2.42-1.53.97-3.2 1.56-1.66.58-3.39.82-1.72.24-3.34.24-3.21 0-5.97-1.06-2.76-1.07-4.8-3.15-2.04-2.09-3.21-5.16-1.17-3.08-1.17-7.13 0-3.15 1.02-5.92 1.02-2.78 2.92-4.83 1.91-2.06 4.65-3.26 2.75-1.2 6.2-1.2 2.91 0 5.37.93t4.23 2.72q1.77 1.78 2.77 4.38 1.01 2.59 1.01 5.92 0 1.68-.36 2.27-.36.58-1.38.58m18.54-1.68q1.38 0 2.4-.38 1.02-.37 1.69-1.03.68-.66 1.02-1.59.35-.93.35-2.04 0-2.28-1.37-3.61-1.36-1.34-4.09-1.34t-4.1 1.34q-1.36 1.33-1.36 3.61 0 1.08.34 2.01.35.93 1.02 1.61.68.67 1.71 1.04 1.04.38 2.39.38m8.37 17.52q0-.9-.54-1.47t-1.47-.88q-.93-.32-2.18-.47-1.24-.15-2.64-.23-1.39-.07-2.88-.13-1.48-.06-2.89-.24-1.23.69-2 1.62-.76.93-.76 2.16 0 .81.4 1.51.41.71 1.29 1.22.89.51 2.3.79 1.41.29 3.45.29 2.07 0 3.57-.32 1.5-.31 2.47-.86.98-.56 1.43-1.33.45-.76.45-1.66m-1.47-31.11h8.85v2.76q0 1.32-1.59 1.62l-2.76.51q.63 1.59.63 3.48 0 2.28-.92 4.13-.91 1.84-2.53 3.13t-3.83 1.99q-2.2.71-4.75.71-.9 0-1.74-.09t-1.65-.24q-1.44.87-1.44 1.95 0 .93.85 1.37.86.43 2.27.61t3.21.23q1.8.04 3.69.19t3.69.53q1.8.37 3.21 1.18t2.26 2.21q.86 1.39.86 3.58 0 2.04-1.01 3.96-1 1.92-2.91 3.42-1.9 1.5-4.68 2.41-2.77.92-6.31.92-3.48 0-6.06-.68-2.58-.67-4.29-1.79-1.71-1.13-2.55-2.6t-.84-3.06q0-2.16 1.3-3.61 1.31-1.46 3.59-2.33-1.23-.63-1.95-1.68t-.72-2.76q0-.69.25-1.43.26-.73.75-1.45.5-.72 1.25-1.36.75-.65 1.77-1.16-2.34-1.26-3.68-3.36-1.33-2.1-1.33-4.92 0-2.28.91-4.12.92-1.85 2.55-3.15 1.64-1.31 3.87-2 2.24-.69 4.88-.69 1.98 0 3.72.41 1.74.4 3.18 1.18m27.15-1.53q3.42 0 6.22 1.11 2.81 1.11 4.8 3.15 2 2.04 3.08 4.98t1.08 6.57q0 3.66-1.08 6.6t-3.08 5.01q-1.99 2.07-4.8 3.18-2.8 1.11-6.22 1.11-3.45 0-6.27-1.11t-4.82-3.18q-1.99-2.07-3.09-5.01-1.09-2.94-1.09-6.6 0-3.63 1.09-6.57 1.1-2.94 3.09-4.98 2-2.04 4.82-3.15t6.27-1.11m0 26.01q3.84 0 5.68-2.58 1.85-2.58 1.85-7.56t-1.85-7.59q-1.84-2.61-5.68-2.61-3.9 0-5.78 2.63-1.87 2.62-1.87 7.57t1.87 7.55q1.88 2.59 5.78 2.59m27.39-23.67.45 3.48q1.44-2.76 3.42-4.33 1.98-1.58 4.68-1.58 2.13 0 3.42.93l-.48 5.55q-.15.54-.44.76-.28.23-.76.23-.45 0-1.34-.15-.88-.15-1.72-.15-1.23 0-2.19.36t-1.73 1.03q-.76.68-1.35 1.64-.58.96-1.09 2.19v18.96h-7.41v-30.78h4.35q1.14 0 1.59.4.45.41.6 1.46m37.86-1.86h5.94l-16.77 39.24q-.33.78-.86 1.18-.52.41-1.6.41h-5.52l5.76-12.36-12.45-28.47h6.51q.87 0 1.36.42.5.42.74.96l6.54 15.96q.33.81.55 1.62.23.81.44 1.65.27-.84.54-1.66.27-.83.6-1.64l6.18-15.93q.24-.6.79-.99.56-.39 1.25-.39m33.45 24.48h8.16q2.25 0 3.78-.54t2.44-1.44q.92-.9 1.32-2.1.41-1.2.41-2.55 0-1.41-.45-2.53-.45-1.13-1.41-1.92-.96-.8-2.48-1.22-1.51-.42-3.64-.42h-8.13zm6.87-30.84h-6.87v12.54h6.42q4.14 0 6.25-1.5 2.12-1.5 2.12-4.77 0-3.39-1.92-4.83t-6-1.44m-14.94-6.24h14.94q4.26 0 7.29.81t4.96 2.31q1.94 1.5 2.84 3.63t.9 4.8q0 1.53-.45 2.93-.45 1.39-1.4 2.61-.94 1.21-2.4 2.2-1.45.99-3.46 1.68 8.94 2.01 8.94 9.66 0 2.76-1.05 5.1t-3.06 4.04q-2.01 1.69-4.95 2.65t-6.72.96h-16.38zm44.88 14.46.45 3.48q1.44-2.76 3.42-4.33 1.98-1.58 4.68-1.58 2.13 0 3.42.93l-.48 5.55q-.15.54-.44.76-.28.23-.76.23-.45 0-1.34-.15-.88-.15-1.72-.15-1.23 0-2.19.36t-1.73 1.03q-.76.68-1.35 1.64-.58.96-1.09 2.19v18.96h-7.41v-30.78h4.35q1.14 0 1.59.4.45.41.6 1.46m21.69 9.99h13.98q0-1.44-.41-2.71-.4-1.28-1.21-2.24t-2.06-1.51q-1.24-.56-2.89-.56-3.21 0-5.06 1.83-1.84 1.83-2.35 5.19m18.9 4.47h-19.05q.18 2.37.84 4.09.66 1.73 1.74 2.86 1.08 1.12 2.56 1.68 1.49.55 3.29.55t3.1-.42q1.31-.42 2.28-.93.98-.51 1.71-.93.74-.42 1.43-.42.93 0 1.38.69l2.13 2.7q-1.23 1.44-2.76 2.42-1.53.97-3.2 1.56-1.66.58-3.39.82-1.72.24-3.34.24-3.21 0-5.97-1.06-2.76-1.07-4.8-3.15-2.04-2.09-3.21-5.16-1.17-3.08-1.17-7.13 0-3.15 1.02-5.92 1.02-2.78 2.92-4.83 1.91-2.06 4.65-3.26 2.75-1.2 6.2-1.2 2.91 0 5.37.93t4.23 2.72q1.77 1.78 2.77 4.38 1.01 2.59 1.01 5.92 0 1.68-.36 2.27-.36.58-1.38.58m23.55 6.51v-5.19q-3.21.15-5.4.56-2.19.4-3.51 1.03t-1.89 1.47-.57 1.83q0 1.95 1.15 2.79 1.16.84 3.02.84 2.28 0 3.94-.82 1.67-.83 3.26-2.51m-15.66-16.17-1.32-2.37q5.31-4.86 12.78-4.86 2.7 0 4.83.89 2.13.88 3.6 2.46 1.47 1.57 2.23 3.76.77 2.19.77 4.8v19.44h-3.36q-1.05 0-1.62-.32-.57-.31-.9-1.27l-.66-2.22q-1.17 1.05-2.28 1.85-1.11.79-2.31 1.33t-2.57.83q-1.36.28-3.01.28-1.95 0-3.6-.52-1.65-.53-2.85-1.58t-1.86-2.61-.66-3.63q0-1.17.39-2.33.39-1.15 1.27-2.2.89-1.05 2.3-1.98t3.46-1.62q2.06-.69 4.79-1.12 2.73-.44 6.24-.53v-1.8q0-3.09-1.32-4.58-1.32-1.48-3.81-1.48-1.8 0-2.99.42-1.18.42-2.08.95-.9.52-1.64.94-.73.42-1.63.42-.78 0-1.32-.41-.54-.4-.87-.94m29.85-20.46h7.41v25.53h1.38q.75 0 1.18-.2.44-.19.89-.79l7.65-9.45q.48-.63 1.06-.96.59-.33 1.52-.33h6.78l-9.57 11.43q-1.02 1.35-2.22 2.07.63.45 1.12 1.05.5.6.95 1.29l10.26 14.94h-6.69q-.87 0-1.5-.28-.63-.29-1.05-1.04l-7.86-11.67q-.42-.69-.87-.9t-1.35-.21h-1.68v14.1h-7.41zm51.39 35.46v-13.8q-1.26-1.53-2.75-2.16-1.48-.63-3.19-.63-1.68 0-3.03.63t-2.31 1.9q-.96 1.28-1.47 3.25-.51 1.96-.51 4.63 0 2.7.43 4.58.44 1.87 1.25 3.05.81 1.19 1.98 1.71 1.17.53 2.61.53 2.31 0 3.93-.96t3.06-2.73m0-35.46h7.41v44.58h-4.53q-1.47 0-1.86-1.35l-.63-2.97q-1.86 2.13-4.28 3.45-2.41 1.32-5.62 1.32-2.52 0-4.62-1.05t-3.62-3.05q-1.51-1.99-2.34-4.93-.82-2.94-.82-6.72 0-3.42.93-6.36t2.67-5.1 4.17-3.37q2.43-1.22 5.46-1.22 2.58 0 4.41.81t3.27 2.19zm28.35 13.32q3.42 0 6.22 1.11 2.81 1.11 4.8 3.15 2 2.04 3.08 4.98t1.08 6.57q0 3.66-1.08 6.6t-3.08 5.01q-1.99 2.07-4.8 3.18-2.8 1.11-6.22 1.11-3.45 0-6.27-1.11t-4.82-3.18q-1.99-2.07-3.09-5.01-1.09-2.94-1.09-6.6 0-3.63 1.09-6.57 1.1-2.94 3.09-4.98 2-2.04 4.82-3.15t6.27-1.11m0 26.01q3.84 0 5.68-2.58 1.85-2.58 1.85-7.56t-1.85-7.59q-1.84-2.61-5.68-2.61-3.9 0-5.78 2.63-1.87 2.62-1.87 7.57t1.87 7.55q1.88 2.59 5.78 2.59m59.16-25.53h5.64l-9.78 30.78h-5.94q-1.02 0-1.41-1.32l-5.52-17.79q-.27-.9-.5-1.78-.22-.89-.37-1.79-.18.9-.41 1.82-.22.91-.49 1.81l-5.61 17.73q-.36 1.32-1.59 1.32h-5.7l-9.75-30.78h5.91q.81 0 1.38.39t.75.99l4.41 16.44q.33 1.35.58 2.64.26 1.29.44 2.58.33-1.29.7-2.58.38-1.29.8-2.64l5.1-16.5q.18-.6.7-.99.53-.39 1.28-.39h3.27q.78 0 1.33.39.56.39.74.99l4.95 16.5q.39 1.35.73 2.66.35 1.3.68 2.59.39-2.55 1.11-5.25l4.53-16.44q.21-.6.75-.99t1.29-.39m16.26 1.35.51 2.43q.93-.93 1.96-1.72 1.04-.8 2.19-1.35 1.16-.56 2.48-.88 1.32-.31 2.88-.31 2.52 0 4.47.86 1.95.85 3.25 2.4 1.31 1.54 1.98 3.69.68 2.14.68 4.72v19.59h-7.41v-19.59q0-2.82-1.29-4.36-1.29-1.55-3.93-1.55-1.92 0-3.6.87t-3.18 2.37v22.26h-7.41v-30.78h4.53q1.44 0 1.89 1.35m72.96 19.2q.66 0 1.17.51l3.18 3.45q-2.64 3.27-6.5 5.01-3.85 1.74-9.25 1.74-4.83 0-8.69-1.65-3.85-1.65-6.58-4.59t-4.19-7.02q-1.45-4.08-1.45-8.91 0-4.89 1.56-8.95 1.56-4.07 4.39-7.01 2.84-2.94 6.77-4.58 3.93-1.63 8.7-1.63 4.74 0 8.41 1.56 3.68 1.56 6.26 4.08l-2.7 3.75q-.24.36-.62.63-.37.27-1.03.27-.45 0-.93-.25-.48-.26-1.05-.63-.57-.38-1.32-.83t-1.74-.82q-.99-.38-2.3-.63-1.3-.26-3.01-.26-2.91 0-5.33 1.04-2.41 1.03-4.15 3-1.74 1.96-2.7 4.8-.96 2.83-.96 6.46 0 3.66 1.03 6.51 1.04 2.85 2.81 4.8t4.17 2.99q2.4 1.03 5.16 1.03 1.65 0 2.98-.18 1.34-.18 2.46-.57 1.13-.39 2.13-1.01 1.01-.61 2-1.51.3-.27.63-.43.33-.17.69-.17m16.14-34.35v17.1q1.8-1.68 3.96-2.73t5.07-1.05q2.52 0 4.47.86 1.95.85 3.25 2.4 1.31 1.54 1.98 3.69.68 2.14.68 4.72v19.59h-7.41v-19.59q0-2.82-1.29-4.36-1.29-1.55-3.93-1.55-1.92 0-3.6.87t-3.18 2.37v22.26h-7.41v-44.58zm42.69 36.63v-5.19q-3.21.15-5.4.56-2.19.4-3.51 1.03t-1.89 1.47-.57 1.83q0 1.95 1.15 2.79 1.16.84 3.02.84 2.28 0 3.94-.82 1.67-.83 3.26-2.51m-15.66-16.17-1.32-2.37q5.31-4.86 12.78-4.86 2.7 0 4.83.89 2.13.88 3.6 2.46 1.47 1.57 2.23 3.76.77 2.19.77 4.8v19.44h-3.36q-1.05 0-1.62-.32-.57-.31-.9-1.27l-.66-2.22q-1.17 1.05-2.28 1.85-1.11.79-2.31 1.33t-2.57.83q-1.36.28-3.01.28-1.95 0-3.6-.52-1.65-.53-2.85-1.58t-1.86-2.61-.66-3.63q0-1.17.39-2.33.39-1.15 1.27-2.2.89-1.05 2.3-1.98t3.46-1.62q2.06-.69 4.79-1.12 2.73-.44 6.24-.53v-1.8q0-3.09-1.32-4.58-1.32-1.48-3.81-1.48-1.8 0-2.99.42-1.18.42-2.08.95-.9.52-1.64.94-.73.42-1.63.42-.78 0-1.32-.41-.54-.4-.87-.94m36.39-4.8.45 3.48q1.44-2.76 3.42-4.33 1.98-1.58 4.68-1.58 2.13 0 3.42.93l-.48 5.55q-.15.54-.44.76-.28.23-.76.23-.45 0-1.34-.15-.88-.15-1.72-.15-1.23 0-2.19.36t-1.73 1.03q-.76.68-1.35 1.64-.58.96-1.09 2.19v18.96h-7.41v-30.78h4.35q1.14 0 1.59.4.45.41.6 1.46m26.1 29.4q-4.02 0-6.17-2.26-2.14-2.27-2.14-6.26v-17.19h-3.15q-.6 0-1.02-.39t-.42-1.17v-2.94l4.95-.81 1.56-8.4q.15-.6.57-.93t1.08-.33h3.84v9.69h8.22v5.28h-8.22v16.68q0 1.44.7 2.25.71.81 1.94.81.69 0 1.15-.16.47-.17.81-.35.35-.18.62-.34.27-.17.54-.17.33 0 .54.17.21.16.45.49l2.22 3.6q-1.62 1.35-3.72 2.04t-4.35.69"/></svg>