<svg xmlns="http://www.w3.org/2000/svg" width="1200" height="700" viewBox="0 0 1200 700"><rect width="100%" height="100%" fill="#475569"/><path fill="#ffffff" d="M272.86 356.875q.65 0 1.15.5l3.13 3.39q-2.6 3.22-6.39 4.93t-9.1 1.71q-4.75 0-8.54-1.62t-6.48-4.51q-2.68-2.89-4.11-6.91-1.43-4.01-1.43-8.76 0-4.81 1.53-8.8 1.54-4 4.32-6.89 2.79-2.89 6.66-4.5 3.86-1.61 8.55-1.61 4.66 0 8.28 1.53 3.61 1.54 6.15 4.02l-2.66 3.68q-.23.36-.6.62-.37.27-1.02.27-.44 0-.92-.25-.47-.25-1.03-.62t-1.3-.81q-.73-.44-1.71-.81-.97-.37-2.25-.62-1.29-.25-2.97-.25-2.86 0-5.23 1.01-2.38 1.02-4.09 2.95-1.71 1.94-2.66 4.72-.94 2.79-.94 6.36 0 3.6 1.02 6.4 1.02 2.81 2.76 4.72 1.74 1.92 4.1 2.94t5.07 1.02q1.62 0 2.94-.18 1.31-.18 2.42-.56 1.1-.39 2.09-.99t1.96-1.49q.3-.27.62-.43.33-.16.68-.16m21.98-20.68q3.36 0 6.12 1.09t4.72 3.1 3.02 4.9 1.06 6.46q0 3.6-1.06 6.49t-3.02 4.92q-1.96 2.04-4.72 3.13t-6.12 1.09q-3.4 0-6.17-1.09t-4.73-3.13q-1.96-2.03-3.04-4.92t-1.08-6.49q0-3.57 1.08-6.46t3.04-4.9 4.73-3.1 6.17-1.09m0 25.58q3.77 0 5.59-2.54 1.81-2.54 1.81-7.43 0-4.9-1.81-7.47-1.82-2.56-5.59-2.56-3.84 0-5.68 2.58t-1.84 7.45q0 4.86 1.84 7.42 1.84 2.55 5.68 2.55m39.29-25.11h7.29v30.27h-4.46q-1.44 0-1.83-1.33l-.5-2.42q-1.86 1.89-4.1 3.06-2.24 1.16-5.28 1.16-2.48 0-4.38-.84t-3.2-2.37q-1.3-1.54-1.96-3.65t-.66-4.64v-19.24h7.28v19.24q0 2.77 1.28 4.29 1.29 1.52 3.85 1.52 1.89 0 3.54-.84 1.66-.84 3.13-2.32zm20.8 1.33.5 2.39q.92-.91 1.93-1.7 1.02-.78 2.16-1.32 1.13-.55 2.43-.86t2.83-.31q2.48 0 4.4.84t3.2 2.36 1.95 3.63q.66 2.11.66 4.65v19.26h-7.29v-19.26q0-2.78-1.27-4.3-1.26-1.52-3.86-1.52-1.89 0-3.54.86t-3.13 2.33v21.89h-7.28v-30.27h4.45q1.42 0 1.86 1.33m37.05 29.41q-3.95 0-6.06-2.23-2.11-2.22-2.11-6.15v-16.9h-3.1q-.59 0-1-.38-.41-.39-.41-1.15v-2.89l4.86-.8 1.54-8.26q.15-.59.56-.92.41-.32 1.06-.32h3.78v9.53h8.08v5.19h-8.08v16.4q0 1.42.69 2.21.69.8 1.9.8.68 0 1.14-.16t.79-.34q.34-.18.61-.34.26-.16.53-.16.32 0 .53.16t.44.49l2.19 3.54q-1.6 1.32-3.66 2-2.07.68-4.28.68m18.29-28.91.44 3.42q1.42-2.71 3.37-4.26 1.94-1.55 4.6-1.55 2.09 0 3.36.92l-.47 5.45q-.15.54-.43.76t-.75.22q-.44 0-1.31-.15t-1.7-.15q-1.21 0-2.15.36-.95.35-1.7 1.01-.75.67-1.33 1.61-.57.95-1.07 2.16v18.64h-7.29v-30.27h4.28q1.12 0 1.56.4t.59 1.43m37.23-1.83h5.84l-16.49 38.59q-.32.77-.84 1.16-.52.4-1.58.4H429l5.67-12.15-12.24-28h6.4q.85 0 1.34.42.49.41.72.94l6.43 15.69q.33.8.55 1.6.22.79.43 1.62.26-.83.53-1.64.26-.81.59-1.61l6.07-15.66q.24-.59.79-.97.54-.39 1.22-.39m62.84 8.94q0 4.69-1.57 8.62-1.56 3.92-4.39 6.75-2.84 2.83-6.82 4.4-3.98 1.56-8.85 1.56h-16.25v-42.66h16.25q4.87 0 8.85 1.58t6.82 4.4q2.83 2.81 4.39 6.74 1.57 3.92 1.57 8.61m-8.15 0q0-3.51-.93-6.3-.93-2.78-2.68-4.72-1.76-1.93-4.25-2.96t-5.62-1.03h-8.29v30.03h8.29q3.13 0 5.62-1.04 2.49-1.03 4.25-2.96 1.75-1.93 2.68-4.72t.93-6.3m19.74 2.72h13.75q0-1.42-.4-2.67-.4-1.26-1.2-2.2-.79-.95-2.02-1.49-1.22-.55-2.84-.55-3.16 0-4.98 1.8-1.81 1.8-2.31 5.11m18.58 4.39h-18.73q.18 2.33.83 4.03.65 1.69 1.71 2.8t2.52 1.65q1.46.55 3.23.55t3.05-.42q1.29-.41 2.25-.91.95-.5 1.68-.91.72-.42 1.4-.42.91 0 1.36.68l2.09 2.66q-1.21 1.41-2.71 2.37-1.51.96-3.15 1.54-1.63.57-3.33.81-1.7.23-3.29.23-3.15 0-5.87-1.04-2.71-1.05-4.72-3.1-2-2.05-3.16-5.08-1.15-3.02-1.15-7 0-3.1 1.01-5.83 1-2.73 2.87-4.75 1.88-2.02 4.58-3.2t6.09-1.18q2.86 0 5.28.92 2.42.91 4.16 2.67 1.74 1.75 2.73 4.3.98 2.55.98 5.83 0 1.65-.35 2.23-.35.57-1.36.57m17.26 14.69q-3.95 0-6.06-2.23-2.11-2.22-2.11-6.15v-16.9h-3.1q-.59 0-1-.38-.41-.39-.41-1.15v-2.89l4.86-.8 1.54-8.26q.15-.59.56-.92.41-.32 1.06-.32h3.78v9.53h8.08v5.19h-8.08v16.4q0 1.42.69 2.21.69.8 1.9.8.68 0 1.14-.16t.79-.34q.34-.18.61-.34.26-.16.53-.16.32 0 .53.16t.44.49l2.19 3.54q-1.6 1.32-3.66 2-2.07.68-4.28.68m17.61-19.08h13.75q0-1.42-.4-2.67-.4-1.26-1.19-2.2-.8-.95-2.02-1.49-1.23-.55-2.85-.55-3.16 0-4.97 1.8-1.82 1.8-2.32 5.11m18.59 4.39h-18.73q.17 2.33.82 4.03.65 1.69 1.71 2.8t2.52 1.65q1.46.55 3.23.55t3.06-.42q1.28-.41 2.24-.91t1.68-.91q.72-.42 1.4-.42.92 0 1.36.68l2.09 2.66q-1.21 1.41-2.71 2.37t-3.14 1.54q-1.64.57-3.34.81-1.69.23-3.28.23-3.16 0-5.87-1.04-2.72-1.05-4.72-3.1-2.01-2.05-3.16-5.08-1.15-3.02-1.15-7 0-3.1 1-5.83t2.88-4.75q1.87-2.02 4.57-3.2t6.09-1.18q2.86 0 5.28.92 2.42.91 4.16 2.67 1.74 1.75 2.73 4.3t.99 5.83q0 1.65-.36 2.23-.35.57-1.35.57m30.77-12.3-1.92 2.65q-.33.42-.64.65-.31.24-.9.24-.56 0-1.09-.34t-1.27-.77q-.73-.42-1.75-.76t-2.52-.34q-1.92 0-3.37.69-1.44.69-2.4 1.99t-1.43 3.14q-.47 1.85-.47 4.18 0 2.42.51 4.3.52 1.89 1.49 3.18.98 1.28 2.36 1.94 1.39.67 3.13.67t2.82-.43q1.07-.43 1.81-.95.74-.51 1.28-.94.55-.43 1.23-.43.88 0 1.33.68l2.09 2.66q-1.21 1.41-2.62 2.37-1.42.96-2.94 1.54-1.52.57-3.13.81-1.6.23-3.2.23-2.8 0-5.28-1.04-2.48-1.05-4.33-3.06-1.86-2-2.94-4.91t-1.08-6.62q0-3.34.96-6.18.96-2.85 2.82-4.93t4.6-3.26q2.75-1.18 6.31-1.18 3.4 0 5.95 1.09t4.59 3.13m14.92 26.99q-3.95 0-6.06-2.23-2.11-2.22-2.11-6.15v-16.9h-3.1q-.59 0-1-.38-.41-.39-.41-1.15v-2.89l4.87-.8 1.53-8.26q.15-.59.56-.92.41-.32 1.06-.32h3.78v9.53h8.08v5.19h-8.08v16.4q0 1.42.69 2.21.69.8 1.9.8.68 0 1.14-.16t.8-.34.6-.34q.27-.16.53-.16.33 0 .53.16.21.16.45.49l2.18 3.54q-1.59 1.32-3.66 2-2.06.68-4.28.68m12.1-30.74h7.31v30.27h-7.31zm8.32-8.82q0 .95-.39 1.77-.38.83-1.01 1.45-.64.62-1.49.99-.86.36-1.83.36-.95 0-1.79-.36-.84-.37-1.46-.99t-.99-1.45q-.36-.82-.36-1.77 0-.97.36-1.83.37-.85.99-1.47t1.46-.99 1.79-.37q.97 0 1.83.37.85.37 1.49.99.63.62 1.01 1.47.39.86.39 1.83m19.82 8.35q3.36 0 6.12 1.09t4.72 3.1 3.03 4.9q1.06 2.89 1.06 6.46 0 3.6-1.06 6.49-1.07 2.89-3.03 4.92-1.96 2.04-4.72 3.13t-6.12 1.09q-3.39 0-6.16-1.09-2.78-1.09-4.74-3.13-1.96-2.03-3.04-4.92-1.07-2.89-1.07-6.49 0-3.57 1.07-6.46 1.08-2.89 3.04-4.9t4.74-3.1q2.77-1.09 6.16-1.09m0 25.58q3.78 0 5.59-2.54 1.82-2.54 1.82-7.43 0-4.9-1.82-7.47-1.81-2.56-5.59-2.56-3.83 0-5.68 2.58-1.84 2.58-1.84 7.45 0 4.86 1.84 7.42 1.85 2.55 5.68 2.55m26.82-23.78.5 2.39q.91-.91 1.93-1.7 1.02-.78 2.15-1.32 1.14-.55 2.44-.86t2.83-.31q2.48 0 4.4.84 1.91.84 3.2 2.36 1.28 1.52 1.94 3.63.67 2.11.67 4.65v19.26h-7.29v-19.26q0-2.78-1.27-4.3t-3.86-1.52q-1.89 0-3.54.86t-3.13 2.33v21.89h-7.29v-30.27h4.46q1.41 0 1.86 1.33m50.38 7.73h5.93q2.19 0 3.81-.55 1.62-.54 2.7-1.56 1.07-1.02 1.6-2.48.54-1.46.54-3.26 0-1.71-.54-3.1-.53-1.38-1.59-2.36-1.06-.97-2.68-1.48-1.63-.52-3.84-.52h-5.93zm-7.93-21.45h13.86q4.28 0 7.41 1.01 3.12 1 5.16 2.8 2.03 1.8 3.02 4.31.99 2.5.99 5.48 0 3.1-1.03 5.68t-3.1 4.44q-2.06 1.86-5.18 2.89-3.11 1.03-7.27 1.03h-5.93v15.02h-7.93zm41.8 14.22.44 3.42q1.42-2.71 3.36-4.26 1.95-1.55 4.61-1.55 2.09 0 3.36.92l-.47 5.45q-.15.54-.43.76t-.75.22q-.45 0-1.32-.15t-1.69-.15q-1.21 0-2.16.36-.94.35-1.69 1.01-.75.67-1.33 1.61-.57.95-1.08 2.16v18.64h-7.28v-30.27h4.28q1.12 0 1.56.4t.59 1.43m21.33 9.83h13.74q0-1.42-.39-2.67-.4-1.26-1.2-2.2-.8-.95-2.02-1.49-1.22-.55-2.85-.55-3.15 0-4.97 1.8-1.81 1.8-2.31 5.11m18.58 4.39h-18.73q.18 2.33.83 4.03.64 1.69 1.71 2.8 1.06 1.11 2.52 1.65 1.46.55 3.23.55t3.05-.42q1.29-.41 2.24-.91.96-.5 1.69-.91.72-.42 1.4-.42.91 0 1.35.68l2.1 2.66q-1.21 1.41-2.72 2.37-1.5.96-3.14 1.54-1.63.57-3.33.81-1.7.23-3.29.23-3.16 0-5.87-1.04-2.71-1.05-4.72-3.1t-3.16-5.08q-1.15-3.02-1.15-7 0-3.1 1.01-5.83 1-2.73 2.87-4.75 1.88-2.02 4.57-3.2 2.7-1.18 6.1-1.18 2.86 0 5.28.92 2.42.91 4.16 2.67 1.74 1.75 2.72 4.3.99 2.55.99 5.83 0 1.65-.35 2.23-.35.57-1.36.57m28.71-16.05h5.75l-12.01 30.27h-6.61l-12-30.27h6.02q.82 0 1.37.39.54.38.72.97l5.84 16.17q.47 1.41.83 2.77.35 1.36.62 2.71.29-1.35.65-2.71.35-1.36.85-2.77l5.96-16.17q.21-.59.74-.97.53-.39 1.27-.39m9.85 0h7.31v30.27h-7.31zm8.32-8.82q0 .95-.39 1.77-.38.83-1.01 1.45-.64.62-1.49.99-.86.36-1.83.36-.95 0-1.79-.36-.84-.37-1.46-.99t-.99-1.45q-.36-.82-.36-1.77 0-.97.36-1.83.37-.85.99-1.47t1.46-.99 1.79-.37q.97 0 1.83.37.85.37 1.49.99.63.62 1.01 1.47.39.86.39 1.83m12.18 20.48h13.75q0-1.42-.4-2.67-.4-1.26-1.19-2.2-.8-.95-2.03-1.49-1.22-.55-2.84-.55-3.16 0-4.97 1.8-1.82 1.8-2.32 5.11m18.59 4.39h-18.74q.18 2.33.83 4.03.65 1.69 1.71 2.8t2.52 1.65q1.46.55 3.23.55t3.06-.42q1.28-.41 2.24-.91t1.68-.91q.72-.42 1.4-.42.92 0 1.36.68l2.09 2.66q-1.21 1.41-2.71 2.37-1.51.96-3.14 1.54-1.64.57-3.34.81-1.69.23-3.29.23-3.15 0-5.87-1.04-2.71-1.05-4.72-3.1-2-2.05-3.15-5.08-1.15-3.02-1.15-7 0-3.1 1-5.83t2.88-4.75q1.87-2.02 4.57-3.2t6.09-1.18q2.86 0 5.28.92 2.42.91 4.16 2.67 1.74 1.75 2.73 4.3t.99 5.83q0 1.65-.36 2.23-.35.57-1.35.57m44.84-16.05h5.54l-9.61 30.27h-5.85q-1 0-1.38-1.3l-5.43-17.49q-.27-.89-.49-1.76t-.37-1.75q-.17.88-.39 1.78-.23.9-.49 1.79l-5.52 17.43q-.35 1.3-1.56 1.3h-5.61l-9.58-30.27h5.81q.79 0 1.36.39.56.38.73.97l4.34 16.17q.32 1.32.57 2.59.26 1.27.43 2.54.33-1.27.7-2.54.36-1.27.78-2.59l5.01-16.23q.18-.59.7-.97.51-.39 1.25-.39h3.21q.77 0 1.32.39.54.38.72.97l4.87 16.23q.38 1.32.72 2.61.34 1.28.66 2.55.39-2.51 1.1-5.16l4.45-16.17q.21-.59.74-.97.53-.39 1.27-.39"/></svg>