<svg xmlns="http://www.w3.org/2000/svg" width="1200" height="700" viewBox="0 0 1200 700"><rect width="100%" height="100%" fill="#0f172a"/><path fill="#ffffff" d="m261.245 331.695-1.64 3.11q-.3.51-.63.74-.33.24-.82.24-.51 0-1.11-.38t-1.44-.85q-.83-.46-1.95-.84-1.11-.38-2.63-.38-1.37 0-2.4.33t-1.73.92q-.7.58-1.04 1.4-.34.83-.34 1.81 0 1.24.7 2.08.7.83 1.85 1.42t2.62 1.05q1.47.47 3.01.99 1.55.53 3.02 1.23t2.62 1.76q1.15 1.07 1.85 2.61.69 1.55.69 3.75 0 2.4-.82 4.5-.82 2.09-2.4 3.65-1.58 1.55-3.86 2.45-2.27.89-5.21.89-1.69 0-3.34-.33-1.64-.33-3.14-.94-1.51-.61-2.83-1.47-1.33-.86-2.36-1.91l1.94-3.16q.24-.35.64-.58.39-.23.83-.23.61 0 1.32.5t1.69 1.11q.98.62 2.29 1.12t3.15.5q2.82 0 4.36-1.33 1.55-1.34 1.55-3.84 0-1.39-.7-2.28-.7-.88-1.85-1.48t-2.62-1.02q-1.47-.41-2.99-.9t-2.99-1.18q-1.47-.68-2.62-1.79-1.15-1.1-1.85-2.75-.7-1.66-.7-4.08 0-1.94.77-3.77.77-1.84 2.24-3.26t3.63-2.28q2.15-.86 4.95-.86 3.13 0 5.78.98t4.51 2.75m11.46 32.09h-6.05v-25.14h3.7q1.18 0 1.55 1.11l.39 1.86q.66-.74 1.38-1.35t1.54-1.05q.83-.44 1.77-.7t2.07-.26q2.38 0 3.91 1.29 1.53 1.28 2.29 3.42.59-1.25 1.47-2.15.88-.89 1.93-1.46 1.06-.56 2.24-.83 1.19-.27 2.39-.27 2.09 0 3.7.64 1.62.63 2.72 1.86 1.11 1.23 1.68 2.99.58 1.76.58 4.04v16h-6.05v-16q0-2.4-1.06-3.61-1.05-1.21-3.09-1.21-.93 0-1.72.31-.8.32-1.4.92t-.94 1.51q-.35.91-.35 2.08v16h-6.07v-16q0-2.52-1.02-3.67-1.01-1.15-2.97-1.15-1.33 0-2.47.64-1.14.65-2.12 1.78zm48.27-6.49v-4.24q-2.62.12-4.41.45t-2.87.85q-1.08.51-1.54 1.2-.47.68-.47 1.49 0 1.59.95 2.28.94.69 2.46.69 1.86 0 3.22-.68 1.36-.67 2.66-2.04m-12.79-13.21-1.08-1.93q4.34-3.97 10.44-3.97 2.2 0 3.94.72t2.94 2.01 1.83 3.07q.62 1.79.62 3.92v15.88h-2.74q-.86 0-1.32-.26-.47-.25-.74-1.04l-.54-1.81q-.95.86-1.86 1.51-.91.64-1.89 1.09-.98.44-2.09.67-1.12.23-2.46.23-1.6 0-2.94-.43-1.35-.43-2.33-1.28-.98-.86-1.52-2.13-.54-1.28-.54-2.97 0-.95.32-1.9.32-.94 1.04-1.8t1.88-1.62q1.15-.76 2.82-1.32 1.68-.56 3.91-.92 2.23-.35 5.1-.43v-1.47q0-2.52-1.08-3.73t-3.11-1.21q-1.47 0-2.44.34t-1.7.77q-.74.43-1.34.77t-1.33.34q-.64 0-1.08-.33t-.71-.77m29.72-3.92.37 2.84q1.17-2.25 2.79-3.54 1.62-1.28 3.82-1.28 1.74 0 2.79.76l-.39 4.53q-.12.44-.35.62-.24.19-.63.19-.37 0-1.09-.12-.72-.13-1.41-.13-1 0-1.79.3-.78.29-1.4.84-.63.55-1.11 1.34-.47.78-.89 1.79v15.48h-6.05v-25.14h3.55q.93 0 1.3.33t.49 1.19m21.31 24.01q-3.28 0-5.03-1.85t-1.75-5.11v-14.03h-2.58q-.49 0-.83-.32t-.34-.96v-2.4l4.04-.66 1.27-6.86q.13-.49.47-.76t.88-.27h3.14v7.91h6.71v4.32h-6.71v13.62q0 1.17.57 1.83.58.67 1.58.67.57 0 .95-.14.38-.13.66-.28t.5-.28q.22-.14.44-.14.27 0 .44.14.17.13.37.4l1.81 2.94q-1.32 1.11-3.03 1.67-1.72.56-3.56.56m29.31-5.54h6.66q1.84 0 3.09-.44t1.99-1.17q.75-.74 1.08-1.72t.33-2.08q0-1.15-.37-2.07-.36-.92-1.15-1.57-.78-.65-2.02-.99t-2.98-.34h-6.63zm5.61-25.18h-5.61v10.24h5.24q3.38 0 5.11-1.23 1.72-1.22 1.72-3.89 0-2.77-1.56-3.95-1.57-1.17-4.9-1.17m-12.21-5.1h12.21q3.47 0 5.95.66 2.47.67 4.05 1.89 1.58 1.23 2.32 2.97.73 1.73.73 3.92 0 1.24-.36 2.38-.37 1.14-1.14 2.14-.77.99-1.96 1.8-1.19.8-2.83 1.37 7.3 1.64 7.3 7.89 0 2.25-.86 4.16t-2.5 3.3q-1.64 1.38-4.04 2.17-2.4.78-5.49.78h-13.38zm46.92 10.29h6.05v25.14h-3.7q-1.2 0-1.51-1.1l-.42-2.01q-1.54 1.57-3.41 2.53-1.86.97-4.38.97-2.06 0-3.64-.7-1.58-.69-2.66-1.97-1.08-1.27-1.63-3.02-.55-1.76-.55-3.86v-15.98h6.05v15.98q0 2.3 1.07 3.56 1.06 1.26 3.2 1.26 1.56 0 2.94-.69 1.37-.7 2.59-1.93zm27.81 17.69v-11.27q-1.03-1.25-2.24-1.76-1.21-.52-2.61-.52-1.37 0-2.48.52-1.1.51-1.88 1.55-.79 1.04-1.2 2.65-.42 1.6-.42 3.78 0 2.21.36 3.74.35 1.53 1.01 2.5t1.62 1.4 2.13.43q1.89 0 3.21-.79 1.32-.78 2.5-2.23m0-28.96h6.05v36.41h-3.7q-1.2 0-1.52-1.1l-.51-2.43q-1.52 1.74-3.49 2.82-1.98 1.08-4.6 1.08-2.05 0-3.77-.86-1.71-.86-2.95-2.49t-1.91-4.03q-.68-2.4-.68-5.49 0-2.79.76-5.19t2.18-4.16q1.42-1.77 3.41-2.76 1.98-.99 4.46-.99 2.1 0 3.6.66 1.49.66 2.67 1.79zm21.22 23.23q1.12 0 1.96-.31.83-.3 1.38-.84t.83-1.3q.29-.76.29-1.67 0-1.86-1.12-2.95-1.11-1.09-3.34-1.09t-3.35 1.09q-1.11 1.09-1.11 2.95 0 .89.28 1.64.28.76.83 1.32.55.55 1.4.85.84.31 1.95.31m6.83 14.31q0-.74-.44-1.2-.44-.47-1.2-.73-.76-.25-1.78-.38-1.01-.12-2.15-.18t-2.35-.11q-1.22-.05-2.37-.2-1 .57-1.63 1.33-.62.76-.62 1.76 0 .66.33 1.24.33.57 1.05.99.73.42 1.88.65t2.81.23q1.69 0 2.92-.25 1.22-.26 2.02-.72.8-.45 1.16-1.07.37-.63.37-1.36m-1.2-25.41h7.23v2.25q0 1.08-1.3 1.33l-2.25.41q.51 1.3.51 2.85 0 1.86-.75 3.36-.74 1.51-2.07 2.56-1.32 1.06-3.12 1.63-1.8.58-3.88.58-.74 0-1.42-.07-.69-.08-1.35-.2-1.18.71-1.18 1.59 0 .76.7 1.12.7.35 1.85.5t2.62.18q1.47.04 3.02.16 1.54.13 3.01.43 1.47.31 2.62.97t1.85 1.8.7 2.93q0 1.66-.82 3.23t-2.38 2.8q-1.55 1.22-3.82 1.97-2.27.74-5.16.74-2.84 0-4.95-.55-2.1-.55-3.5-1.47t-2.08-2.12q-.69-1.2-.69-2.49 0-1.77 1.07-2.96 1.06-1.19 2.92-1.9-1-.51-1.59-1.37t-.59-2.25q0-.57.21-1.17t.61-1.18q.41-.59 1.02-1.12t1.45-.94q-1.91-1.03-3-2.75-1.09-1.71-1.09-4.01 0-1.87.74-3.37.75-1.51 2.08-2.58 1.34-1.06 3.17-1.62 1.82-.57 3.98-.57 1.61 0 3.03.33 1.43.33 2.6.97m15.83 8.82h11.42q0-1.18-.34-2.22-.33-1.04-.99-1.82-.66-.79-1.68-1.24-1.01-.45-2.36-.45-2.62 0-4.13 1.49-1.5 1.5-1.92 4.24m15.43 3.65h-15.55q.14 1.94.68 3.35.54 1.4 1.42 2.32.89.92 2.1 1.37 1.21.46 2.68.46t2.54-.35q1.06-.34 1.86-.75.79-.42 1.39-.76.61-.35 1.17-.35.76 0 1.13.57l1.74 2.2q-1.01 1.18-2.26 1.97-1.25.8-2.61 1.28t-2.77.67q-1.41.2-2.73.2-2.62 0-4.87-.87-2.26-.87-3.92-2.57-1.67-1.71-2.63-4.22-.95-2.51-.95-5.82 0-2.57.83-4.84.84-2.26 2.39-3.94 1.56-1.68 3.8-2.66t5.06-.98q2.37 0 4.38.76t3.46 2.22q1.44 1.46 2.26 3.57.82 2.12.82 4.84 0 1.38-.29 1.85-.29.48-1.13.48m14.34 12.2q-3.29 0-5.04-1.85t-1.75-5.11v-14.03h-2.57q-.49 0-.84-.32-.34-.32-.34-.96v-2.4l4.04-.66 1.28-6.86q.12-.49.46-.76.35-.27.89-.27h3.13v7.91h6.71v4.32h-6.71v13.62q0 1.17.58 1.83.57.67 1.58.67.56 0 .94-.14.38-.13.66-.28t.5-.28q.22-.14.45-.14.26 0 .44.14.17.13.36.4l1.82 2.94q-1.33 1.11-3.04 1.67-1.72.56-3.55.56m29.3-18.01h4.92q1.82 0 3.16-.45 1.35-.45 2.24-1.3.9-.84 1.34-2.06.44-1.21.44-2.7 0-1.42-.44-2.58-.44-1.15-1.32-1.96-.88-.8-2.23-1.23t-3.19-.43h-4.92zm-6.59-17.81h11.51q3.56 0 6.15.84 2.6.83 4.29 2.32 1.69 1.5 2.51 3.58t.82 4.56q0 2.57-.86 4.71-.85 2.15-2.57 3.69-1.71 1.54-4.3 2.4-2.58.86-6.04.86h-4.92v12.47h-6.59zm29.45-.98h6.05v36.41h-6.05zm25.38 29.92v-4.24q-2.62.12-4.41.45t-2.87.85q-1.08.51-1.54 1.2-.47.68-.47 1.49 0 1.59.95 2.28.94.69 2.46.69 1.86 0 3.22-.68 1.36-.67 2.66-2.04m-12.79-13.21-1.08-1.93q4.34-3.97 10.44-3.97 2.2 0 3.94.72t2.94 2.01 1.83 3.07q.62 1.79.62 3.92v15.88h-2.74q-.86 0-1.32-.26-.47-.25-.74-1.04l-.54-1.81q-.95.86-1.86 1.51-.91.64-1.89 1.09-.98.44-2.09.67-1.12.23-2.46.23-1.6 0-2.94-.43-1.35-.43-2.33-1.28-.98-.86-1.52-2.13-.54-1.28-.54-2.97 0-.95.32-1.9.32-.94 1.04-1.8t1.88-1.62q1.15-.76 2.82-1.32 1.68-.56 3.91-.92 2.23-.35 5.1-.43v-1.47q0-2.52-1.08-3.73t-3.11-1.21q-1.47 0-2.44.34t-1.7.77q-.74.43-1.34.77t-1.33.34q-.64 0-1.08-.33t-.71-.77m29.62-4.33.42 1.98q.76-.76 1.6-1.41.85-.65 1.79-1.1t2.02-.71 2.35-.26q2.06 0 3.65.7 1.6.7 2.66 1.96 1.07 1.26 1.62 3.01t.55 3.86v16h-6.05v-16q0-2.3-1.05-3.56-1.06-1.26-3.21-1.26-1.57 0-2.94.71-1.38.71-2.6 1.93v18.18h-6.05v-25.14h3.7q1.17 0 1.54 1.11m27.64 0 .41 1.98q.76-.76 1.61-1.41.84-.65 1.79-1.1.94-.45 2.02-.71t2.35-.26q2.06 0 3.65.7t2.66 1.96q1.06 1.26 1.61 3.01.56 1.75.56 3.86v16h-6.06v-16q0-2.3-1.05-3.56t-3.21-1.26q-1.57 0-2.94.71t-2.6 1.93v18.18h-6.05v-25.14h3.7q1.18 0 1.55 1.11m27.17 8.57h11.41q0-1.18-.33-2.22t-.99-1.82q-.66-.79-1.68-1.24-1.01-.45-2.36-.45-2.62 0-4.13 1.49-1.51 1.5-1.92 4.24m15.43 3.65h-15.56q.15 1.94.69 3.35.54 1.4 1.42 2.32t2.1 1.37q1.21.46 2.68.46t2.53-.35q1.07-.34 1.87-.75.79-.42 1.39-.76.6-.35 1.17-.35.76 0 1.12.57l1.74 2.2q-1 1.18-2.25 1.97-1.25.8-2.61 1.28t-2.77.67q-1.41.2-2.73.2-2.62 0-4.88-.87-2.25-.87-3.92-2.57-1.66-1.71-2.62-4.22-.95-2.51-.95-5.82 0-2.57.83-4.84.83-2.26 2.39-3.94 1.55-1.68 3.8-2.66 2.24-.98 5.06-.98 2.37 0 4.38.76t3.46 2.22q1.44 1.46 2.26 3.57.82 2.12.82 4.84 0 1.38-.29 1.85-.3.48-1.13.48m11.3-11.81.36 2.84q1.18-2.25 2.8-3.54 1.61-1.28 3.82-1.28 1.74 0 2.79.76l-.39 4.53q-.12.44-.36.62-.23.19-.62.19-.37 0-1.09-.12-.72-.13-1.41-.13-1 0-1.79.3-.78.29-1.41.84-.62.55-1.1 1.34-.48.78-.89 1.79v15.48h-6.05v-25.14h3.55q.93 0 1.3.33.36.33.49 1.19m57.25 5.91q0 3.89-1.3 7.15-1.29 3.26-3.65 5.61-2.35 2.35-5.66 3.65-3.3 1.3-7.35 1.3h-13.5v-35.43h13.5q4.05 0 7.35 1.31 3.31 1.31 5.66 3.65 2.36 2.34 3.65 5.6 1.3 3.26 1.3 7.16m-6.76 0q0-2.92-.77-5.23-.77-2.32-2.23-3.92-1.46-1.61-3.53-2.47-2.07-.85-4.67-.85h-6.88v24.94h6.88q2.6 0 4.67-.86t3.53-2.46q1.46-1.61 2.23-3.92.77-2.32.77-5.23m24.89 11.22v-4.24q-2.62.12-4.41.45t-2.86.85q-1.08.51-1.55 1.2-.46.68-.46 1.49 0 1.59.94 2.28t2.46.69q1.86 0 3.22-.68 1.36-.67 2.66-2.04m-12.79-13.21-1.07-1.93q4.33-3.97 10.43-3.97 2.21 0 3.95.72t2.94 2.01 1.82 3.07q.63 1.79.63 3.92v15.88h-2.75q-.85 0-1.32-.26-.47-.25-.73-1.04l-.54-1.81q-.96.86-1.87 1.51-.9.64-1.88 1.09-.98.44-2.1.67-1.11.23-2.46.23-1.59 0-2.94-.43t-2.33-1.28q-.98-.86-1.52-2.13-.53-1.28-.53-2.97 0-.95.31-1.9.32-.94 1.04-1.8.73-.86 1.88-1.62t2.83-1.32 3.91-.92q2.23-.35 5.09-.43v-1.47q0-2.52-1.08-3.73-1.07-1.21-3.11-1.21-1.47 0-2.43.34-.97.34-1.71.77-.73.43-1.33.77t-1.34.34q-.63 0-1.08-.33-.44-.33-.71-.77m41.09-2.72-1.37 2.18q-.25.39-.52.55t-.68.16q-.44 0-.95-.24-.5-.25-1.16-.55-.66-.31-1.51-.55-.84-.25-1.99-.25-1.79 0-2.81.76-1.01.76-1.01 1.98 0 .81.52 1.36.53.56 1.4.97.87.42 1.97.75t2.24.72 2.24.9q1.11.5 1.98 1.27t1.39 1.85q.53 1.08.53 2.6 0 1.81-.65 3.34t-1.92 2.65q-1.28 1.11-3.15 1.74-1.88.62-4.33.62-1.29 0-2.53-.23t-2.38-.65-2.1-.98q-.97-.56-1.71-1.23l1.4-2.3q.27-.41.64-.63.36-.23.93-.23.56 0 1.06.32.51.32 1.17.69t1.55.68q.9.32 2.27.32 1.08 0 1.85-.25.77-.26 1.27-.68.5-.41.74-.97.23-.55.23-1.13 0-.89-.53-1.45-.52-.56-1.39-.98t-1.99-.75q-1.11-.33-2.28-.72-1.16-.39-2.27-.92-1.12-.53-1.99-1.33-.87-.81-1.4-1.99-.52-1.17-.52-2.84 0-1.54.61-2.94t1.8-2.44 2.97-1.66q1.77-.63 4.1-.63 2.6 0 4.73.86t3.55 2.25m10.88-13.99v13.97q1.47-1.37 3.23-2.23 1.77-.86 4.14-.86 2.06 0 3.65.7 1.6.7 2.66 1.96 1.07 1.26 1.62 3.01t.55 3.86v16h-6.05v-16q0-2.3-1.06-3.56-1.05-1.26-3.2-1.26-1.57 0-2.94.71-1.38.71-2.6 1.93v18.18h-6.05v-36.41zm27.63 18.62v11.27q1.03 1.25 2.25 1.77 1.21.51 2.56.51 1.39 0 2.51-.5 1.11-.5 1.9-1.57.78-1.06 1.2-2.72.41-1.65.41-3.96 0-4.14-1.37-5.99-1.37-1.84-3.94-1.84-1.74 0-3.04.79-1.3.8-2.48 2.24m0-18.62v14.36q1.52-1.59 3.37-2.54 1.85-.94 4.23-.94 2.18 0 3.93.86t2.99 2.46q1.24 1.61 1.9 3.88.66 2.28.66 5.12 0 3.07-.76 5.57-.76 2.49-2.17 4.27t-3.39 2.76-4.41.98q-1.18 0-2.13-.24-.96-.23-1.77-.64-.8-.42-1.48-1.02-.67-.6-1.28-1.34l-.27 1.69q-.15.64-.51.91-.35.27-.96.27h-4v-36.41zm32.88 10.88q2.8 0 5.09.91 2.29.9 3.92 2.57t2.51 4.07.88 5.36q0 2.99-.88 5.39t-2.51 4.09-3.92 2.6-5.09.91q-2.81 0-5.12-.91-2.3-.91-3.93-2.6t-2.52-4.09q-.9-2.4-.9-5.39 0-2.96.9-5.36.89-2.4 2.52-4.07t3.93-2.57q2.31-.91 5.12-.91m0 21.24q3.14 0 4.65-2.1 1.5-2.11 1.5-6.18t-1.5-6.2q-1.51-2.13-4.65-2.13-3.18 0-4.71 2.15-1.53 2.14-1.53 6.18t1.53 6.16 4.71 2.12m30.31-2.2v-4.24q-2.62.12-4.41.45t-2.87.85q-1.07.51-1.54 1.2-.47.68-.47 1.49 0 1.59.95 2.28.94.69 2.46.69 1.86 0 3.22-.68 1.36-.67 2.66-2.04m-12.79-13.21-1.08-1.93q4.34-3.97 10.44-3.97 2.2 0 3.94.72t2.94 2.01 1.83 3.07q.62 1.79.62 3.92v15.88h-2.74q-.86 0-1.32-.26-.47-.25-.74-1.04l-.54-1.81q-.95.86-1.86 1.51-.91.64-1.89 1.09-.98.44-2.09.67t-2.46.23q-1.59 0-2.94-.43t-2.33-1.28q-.98-.86-1.52-2.13-.54-1.28-.54-2.97 0-.95.32-1.9.32-.94 1.04-1.8t1.88-1.62q1.15-.76 2.83-1.32 1.67-.56 3.9-.92 2.23-.35 5.1-.43v-1.47q0-2.52-1.08-3.73t-3.11-1.21q-1.47 0-2.44.34t-1.7.77q-.74.43-1.34.77t-1.33.34q-.64 0-1.08-.33t-.71-.77m29.72-3.92.37 2.84q1.17-2.25 2.79-3.54 1.62-1.28 3.82-1.28 1.74 0 2.79.76l-.39 4.53q-.12.44-.35.62-.24.19-.63.19-.36 0-1.09-.12-.72-.13-1.41-.13-1 0-1.78.3-.79.29-1.41.84-.63.55-1.11 1.34-.47.78-.89 1.79v15.48h-6.05v-25.14h3.55q.93 0 1.3.33t.49 1.19m28.71 16.17v-11.27q-1.03-1.25-2.24-1.76-1.21-.52-2.61-.52-1.37 0-2.47.52-1.1.51-1.89 1.55-.78 1.04-1.2 2.65-.42 1.6-.42 3.78 0 2.21.36 3.74.35 1.53 1.02 2.5.66.97 1.61 1.4.96.43 2.13.43 1.89 0 3.21-.79 1.33-.78 2.5-2.23m0-28.96h6.05v36.41h-3.69q-1.21 0-1.52-1.1l-.52-2.43q-1.52 1.74-3.49 2.82t-4.59 1.08q-2.06 0-3.78-.86-1.71-.86-2.95-2.49t-1.91-4.03-.67-5.49q0-2.79.76-5.19t2.18-4.16q1.42-1.77 3.4-2.76 1.99-.99 4.46-.99 2.11 0 3.6.66 1.5.66 2.67 1.79z"/></svg>