<svg xmlns="http://www.w3.org/2000/svg" width="1200" height="700" viewBox="0 0 1200 700"><rect width="100%" height="100%" fill="#334155"/><path fill="#ffffff" d="M277.48 324.82h5.78v41.21h-6.75v-26.62q0-1.59.17-3.45l-12.45 23.4q-.89 1.68-2.71 1.68h-1.09q-1.82 0-2.7-1.68l-12.6-23.48q.09.94.14 1.85.06.91.06 1.68v26.62h-6.75v-41.21h5.78q.51 0 .88.03t.67.14.55.37q.24.26.47.68l12.34 22.89q.48.91.89 1.88.42.97.82 2 .4-1.06.82-2.04.43-.99.91-1.9l12.17-22.83q.23-.42.49-.68t.55-.37q.3-.11.67-.14t.89-.03m26.79 11.51q3.25 0 5.91 1.06 2.67 1.05 4.56 2.99 1.9 1.94 2.92 4.73 1.03 2.79 1.03 6.24 0 3.48-1.03 6.27-1.02 2.8-2.92 4.76-1.89 1.97-4.56 3.02-2.66 1.06-5.91 1.06-3.28 0-5.96-1.06-2.68-1.05-4.57-3.02-1.9-1.96-2.94-4.76-1.04-2.79-1.04-6.27 0-3.45 1.04-6.24t2.94-4.73q1.89-1.94 4.57-2.99 2.68-1.06 5.96-1.06m0 24.71q3.65 0 5.4-2.45t1.75-7.18-1.75-7.21-5.4-2.48q-3.71 0-5.49 2.49-1.78 2.5-1.78 7.2t1.78 7.17q1.78 2.46 5.49 2.46m25.9-22.97.49 2.31q.88-.88 1.87-1.64.98-.75 2.08-1.28 1.09-.53 2.35-.83 1.25-.3 2.73-.3 2.4 0 4.25.82 1.85.81 3.09 2.28 1.24 1.46 1.88 3.5t.64 4.49v18.61h-7.04v-18.61q0-2.68-1.22-4.15-1.23-1.47-3.73-1.47-1.83 0-3.42.83-1.6.83-3.03 2.25v21.15h-7.03v-29.24h4.3q1.37 0 1.79 1.28m35.8 28.42q-3.82 0-5.86-2.16-2.03-2.15-2.03-5.94v-16.33h-3q-.57 0-.97-.37-.39-.37-.39-1.11v-2.79l4.7-.77 1.48-7.98q.14-.57.54-.89.4-.31 1.03-.31h3.65v9.21h7.8v5.01h-7.8v15.85q0 1.37.66 2.13.67.77 1.84.77.66 0 1.1-.15.44-.16.77-.33t.58-.33q.26-.15.52-.15.31 0 .51.15.2.16.43.47l2.11 3.42q-1.54 1.29-3.54 1.94-1.99.66-4.13.66m18.5-42.81v16.24q1.71-1.59 3.76-2.59t4.82-1q2.39 0 4.24.82 1.85.81 3.09 2.28 1.24 1.46 1.88 3.5.65 2.04.65 4.49v18.61h-7.04v-18.61q0-2.68-1.23-4.15-1.22-1.47-3.73-1.47-1.83 0-3.42.83-1.6.83-3.02 2.25v21.15h-7.04v-42.35zm25.19 0h7.04v42.35h-7.04zm35 13.11h5.64l-15.93 37.28q-.31.74-.81 1.12-.5.39-1.53.39h-5.24l5.47-11.74-11.83-27.05h6.19q.82 0 1.29.4.48.4.7.91l6.22 15.16q.31.77.52 1.54.22.77.42 1.57.25-.8.51-1.58.26-.79.57-1.56l5.87-15.13q.23-.57.76-.94.52-.37 1.18-.37m47.96-8.1-1.91 3.62q-.34.6-.72.87-.39.27-.96.27-.6 0-1.29-.44-.7-.44-1.67-.98t-2.27-.98q-1.29-.45-3.06-.45-1.6 0-2.79.39-1.2.38-2.01 1.07-.81.68-1.21 1.64-.4.95-.4 2.09 0 1.45.81 2.42t2.15 1.66q1.34.68 3.05 1.22t3.51 1.16q1.79.61 3.5 1.42t3.05 2.05 2.15 3.04q.82 1.79.82 4.36 0 2.79-.96 5.23-.95 2.44-2.79 4.25t-4.49 2.85-6.07 1.04q-1.97 0-3.88-.39-1.91-.38-3.66-1.1-1.75-.71-3.29-1.71-1.54-.99-2.74-2.22l2.25-3.68q.29-.39.74-.67.46-.27.97-.27.72 0 1.54.59.83.58 1.97 1.29 1.14.72 2.66 1.3 1.53.59 3.67.59 3.27 0 5.07-1.56 1.79-1.55 1.79-4.46 0-1.62-.81-2.65-.81-1.02-2.15-1.72t-3.05-1.19q-1.71-.48-3.48-1.05-1.76-.57-3.47-1.37t-3.05-2.08-2.15-3.2q-.82-1.93-.82-4.75 0-2.25.9-4.39t2.61-3.79 4.22-2.65 5.75-1q3.65 0 6.73 1.14t5.24 3.19m13.34 16.65v13.11q1.2 1.45 2.61 2.05t3.06.6q1.6 0 2.88-.6t2.18-1.82q.9-1.23 1.38-3.1.49-1.86.49-4.4 0-2.56-.41-4.34-.42-1.79-1.19-2.9t-1.86-1.62q-1.1-.52-2.5-.52-2.19 0-3.73.93t-2.91 2.61m-.94-7.27.57 2.71q1.8-2.02 4.08-3.28 2.28-1.25 5.36-1.25 2.39 0 4.37.99 1.98 1 3.42 2.9 1.44 1.89 2.22 4.67.79 2.78.79 6.37 0 3.28-.89 6.07-.88 2.79-2.52 4.85-1.64 2.05-3.96 3.2-2.32 1.16-5.2 1.16-2.45 0-4.19-.76-1.74-.75-3.11-2.09v11.97h-7.04v-38.79h4.31q1.36 0 1.79 1.28m31.84 9.98h13.28q0-1.37-.39-2.58-.38-1.21-1.15-2.13-.77-.91-1.95-1.44-1.19-.52-2.75-.52-3.05 0-4.81 1.74-1.75 1.73-2.23 4.93m17.95 4.24h-18.1q.17 2.25.8 3.89t1.65 2.71q1.03 1.07 2.44 1.6 1.41.52 3.12.52t2.95-.4q1.24-.39 2.17-.88.92-.48 1.62-.88t1.36-.4q.88 0 1.31.65l2.02 2.57q-1.17 1.37-2.62 2.29-1.45.93-3.04 1.49-1.58.55-3.22.78t-3.17.23q-3.05 0-5.68-1.01-2.62-1.02-4.56-3-1.93-1.98-3.05-4.9-1.11-2.92-1.11-6.77 0-2.99.97-5.63.97-2.63 2.78-4.58 1.81-1.96 4.42-3.1t5.88-1.14q2.77 0 5.1.89 2.34.88 4.02 2.58 1.68 1.69 2.64 4.16.95 2.46.95 5.63 0 1.59-.34 2.15-.34.55-1.31.55m13.03-14.22.48 2.31q.88-.88 1.87-1.64.98-.75 2.08-1.28 1.09-.53 2.35-.83 1.25-.3 2.73-.3 2.4 0 4.25.82 1.85.81 3.09 2.28 1.24 1.46 1.88 3.5.65 2.04.65 4.49v18.61h-7.04v-18.61q0-2.68-1.23-4.15-1.22-1.47-3.73-1.47-1.83 0-3.42.83-1.6.83-3.02 2.25v21.15h-7.04v-29.24h4.3q1.37 0 1.8 1.28m44.4 19.3v-13.11q-1.2-1.46-2.61-2.06-1.41-.59-3.03-.59-1.6 0-2.88.59-1.29.6-2.2 1.81-.91 1.22-1.39 3.08-.49 1.87-.49 4.4 0 2.57.41 4.35.42 1.78 1.19 2.91.77 1.12 1.88 1.62t2.48.5q2.19 0 3.73-.91t2.91-2.59m0-33.69h7.04v42.35h-4.31q-1.39 0-1.76-1.28l-.6-2.82q-1.77 2.02-4.06 3.27-2.3 1.26-5.35 1.26-2.39 0-4.38-1-2-1-3.44-2.89-1.44-1.9-2.22-4.69-.79-2.79-.79-6.39 0-3.24.89-6.04.88-2.79 2.53-4.84 1.66-2.05 3.97-3.21 2.3-1.15 5.18-1.15 2.45 0 4.19.77t3.11 2.08zm14.22 13.11h7.07v29.24h-7.07zm8.04-8.52q0 .91-.37 1.71t-.99 1.39q-.61.6-1.44.96-.82.36-1.76.36-.91 0-1.73-.36-.81-.36-1.41-.96-.6-.59-.95-1.39-.36-.8-.36-1.71 0-.94.36-1.77.35-.83.95-1.42.6-.6 1.41-.96.82-.36 1.73-.36.94 0 1.76.36.83.36 1.44.96.62.59.99 1.42t.37 1.77m12.31 9.8.48 2.31q.89-.88 1.87-1.64.98-.75 2.08-1.28t2.35-.83q1.26-.3 2.74-.3 2.39 0 4.24.82 1.86.81 3.1 2.28 1.24 1.46 1.88 3.5t.64 4.49v18.61h-7.04v-18.61q0-2.68-1.23-4.15-1.22-1.47-3.73-1.47-1.82 0-3.42.83t-3.02 2.25v21.15h-7.04v-29.24h4.3q1.37 0 1.8 1.28m36.74 12.63q1.31 0 2.28-.36.96-.36 1.61-.98.64-.63.96-1.51.33-.89.33-1.94 0-2.17-1.29-3.44-1.3-1.26-3.89-1.26-2.6 0-3.89 1.26-1.3 1.27-1.3 3.44 0 1.02.33 1.91.32.88.97 1.52.64.64 1.62 1t2.27.36m7.95 16.64q0-.85-.52-1.4-.51-.54-1.39-.84-.89-.3-2.07-.44t-2.51-.21q-1.32-.07-2.73-.13t-2.75-.23q-1.17.66-1.9 1.54-.72.88-.72 2.05 0 .77.38 1.44t1.23 1.16q.84.48 2.18.75t3.27.27q1.97 0 3.39-.3 1.43-.3 2.36-.82.92-.53 1.35-1.26.43-.72.43-1.58m-1.4-29.55h8.41v2.62q0 1.25-1.51 1.54l-2.62.48q.59 1.51.59 3.31 0 2.16-.87 3.92-.86 1.75-2.4 2.97-1.54 1.23-3.64 1.9-2.09.67-4.51.67-.86 0-1.66-.09-.8-.08-1.56-.22-1.37.82-1.37 1.85 0 .88.81 1.3.81.41 2.15.58t3.05.21q1.71.05 3.51.19 1.79.14 3.5.5 1.71.35 3.05 1.12t2.15 2.1q.82 1.32.82 3.4 0 1.94-.96 3.77-.95 1.82-2.76 3.25-1.81 1.42-4.45 2.29t-6 .87q-3.31 0-5.76-.64t-4.07-1.71q-1.63-1.07-2.42-2.47-.8-1.39-.8-2.91 0-2.05 1.24-3.43t3.4-2.21q-1.17-.6-1.85-1.59-.68-1-.68-2.63 0-.65.24-1.35t.71-1.38q.47-.69 1.18-1.3.72-.61 1.69-1.1-2.23-1.19-3.5-3.19-1.26-1.99-1.26-4.67 0-2.17.87-3.92.86-1.75 2.42-2.99 1.55-1.24 3.67-1.9 2.13-.65 4.64-.65 1.88 0 3.53.38 1.65.39 3.02 1.13m67.12 7.63q0 4.54-1.5 8.4-1.49 3.86-4.23 6.68t-6.58 4.4q-3.85 1.59-8.55 1.59-4.68 0-8.53-1.59-3.84-1.58-6.59-4.4t-4.26-6.68-1.51-8.4q0-4.53 1.51-8.39t4.26-6.68 6.59-4.41q3.85-1.58 8.53-1.58 3.13 0 5.9.73 2.76.73 5.07 2.05 2.31 1.33 4.15 3.22 1.83 1.9 3.12 4.23 1.28 2.34 1.95 5.08.67 2.73.67 5.75m-7.84 0q0-3.39-.91-6.08t-2.59-4.57q-1.69-1.89-4.09-2.88-2.41-1-5.43-1t-5.43 1q-2.41.99-4.11 2.88-1.69 1.88-2.6 4.57-.92 2.69-.92 6.08 0 3.4.92 6.09.91 2.69 2.6 4.56 1.7 1.87 4.11 2.86 2.41 1 5.43 1t5.43-1q2.4-.99 4.09-2.86 1.68-1.87 2.59-4.56t.91-6.09m34.29-8.63h5.55l-11.6 29.24h-6.38l-11.6-29.24h5.81q.8 0 1.33.37t.7.94l5.64 15.62q.46 1.37.8 2.68t.6 2.62q.28-1.31.62-2.62.35-1.31.83-2.68l5.76-15.62q.2-.57.71-.94t1.23-.37m14.84 11.26h13.29q0-1.37-.39-2.58-.38-1.21-1.15-2.13-.77-.91-1.96-1.44-1.18-.52-2.75-.52-3.05 0-4.8 1.74-1.75 1.73-2.24 4.93m17.96 4.24h-18.1q.17 2.25.8 3.89t1.65 2.71q1.03 1.07 2.44 1.6 1.41.52 3.12.52t2.95-.4q1.24-.39 2.17-.88.92-.48 1.62-.88t1.35-.4q.89 0 1.32.65l2.02 2.57q-1.17 1.37-2.62 2.29-1.46.93-3.04 1.49-1.58.55-3.22.78t-3.18.23q-3.05 0-5.67-1.01-2.62-1.02-4.56-3t-3.05-4.9-1.11-6.77q0-2.99.97-5.63.97-2.63 2.78-4.58 1.81-1.96 4.42-3.1 2.6-1.14 5.88-1.14 2.77 0 5.1.89 2.34.88 4.02 2.58 1.68 1.69 2.64 4.16.95 2.46.95 5.63 0 1.59-.34 2.15-.34.55-1.31.55m13.14-13.73.43 3.3q1.36-2.62 3.24-4.12 1.89-1.49 4.45-1.49 2.02 0 3.25.88l-.46 5.27q-.14.52-.41.73t-.73.21q-.42 0-1.26-.14-.85-.14-1.64-.14-1.17 0-2.08.34-.92.34-1.64.98-.73.65-1.29 1.56-.55.91-1.04 2.08v18.01h-7.03v-29.24h4.13q1.08 0 1.51.38.43.39.57 1.39m35.85-1.77h5.56l-11.6 29.24h-6.38l-11.6-29.24h5.81q.8 0 1.32.37.53.37.7.94l5.65 15.62q.45 1.37.79 2.68.35 1.31.6 2.62.29-1.31.63-2.62t.83-2.68l5.75-15.62q.2-.57.72-.94.51-.37 1.22-.37m9.52 0h7.07v29.24h-7.07zm8.04-8.52q0 .91-.37 1.71t-.99 1.39q-.61.6-1.44.96-.82.36-1.76.36-.91 0-1.73-.36-.81-.36-1.41-.96-.6-.59-.95-1.39-.36-.8-.36-1.71 0-.94.36-1.77.35-.83.95-1.42.6-.6 1.41-.96.82-.36 1.73-.36.94 0 1.76.36.83.36 1.44.96.62.59.99 1.42t.37 1.77m11.77 19.78h13.28q0-1.37-.39-2.58-.38-1.21-1.15-2.13-.77-.91-1.95-1.44-1.19-.52-2.75-.52-3.05 0-4.81 1.74-1.75 1.73-2.23 4.93m17.95 4.24h-18.09q.17 2.25.79 3.89.63 1.64 1.66 2.71 1.02 1.07 2.43 1.6 1.41.52 3.12.52t2.95-.4q1.24-.39 2.17-.88.93-.48 1.62-.88.7-.4 1.36-.4.88 0 1.31.65l2.02 2.57q-1.17 1.37-2.62 2.29-1.45.93-3.04 1.49-1.58.55-3.22.78-1.63.23-3.17.23-3.05 0-5.67-1.01-2.63-1.02-4.56-3-1.94-1.98-3.05-4.9-1.12-2.92-1.12-6.77 0-2.99.97-5.63.97-2.63 2.78-4.58 1.81-1.96 4.42-3.1t5.88-1.14q2.77 0 5.11.89 2.33.88 4.01 2.58 1.69 1.69 2.64 4.16.96 2.46.96 5.63 0 1.59-.35 2.15-.34.55-1.31.55m43.32-15.5h5.36l-9.29 29.24h-5.64q-.97 0-1.34-1.25l-5.25-16.9q-.25-.86-.47-1.7-.21-.84-.35-1.7-.17.86-.39 1.73-.21.87-.47 1.72l-5.33 16.85q-.34 1.25-1.51 1.25h-5.41l-9.27-29.24h5.62q.77 0 1.31.37t.71.94l4.19 15.62q.32 1.28.56 2.51.24 1.22.41 2.45.31-1.23.67-2.45.36-1.23.76-2.51l4.84-15.68q.17-.57.67-.94t1.21-.37h3.11q.74 0 1.27.37.52.37.69.94l4.71 15.68q.37 1.28.7 2.52.32 1.24.64 2.47.37-2.43 1.05-4.99l4.3-15.62q.2-.57.72-.94.51-.37 1.22-.37"/></svg>