<svg xmlns="http://www.w3.org/2000/svg" width="1200" height="700" viewBox="0 0 1200 700"><rect width="100%" height="100%" fill="#778da9"/><path fill="#ffffff" d="M260.775 331.51h7.02v37.6h-7.02v-16.43h-17.65v16.43h-7.02v-37.6h7.02v16.18h17.65zm30.94 10.92h6.42v26.68h-3.92q-1.28 0-1.62-1.17l-.44-2.13q-1.64 1.66-3.61 2.69-1.98 1.03-4.66 1.03-2.18 0-3.86-.75-1.67-.74-2.82-2.09-1.14-1.35-1.73-3.21-.58-1.86-.58-4.09v-16.96h6.42v16.96q0 2.44 1.13 3.78t3.39 1.34q1.67 0 3.12-.74 1.46-.74 2.76-2.04zm30.5 2.89-1.46 2.31q-.26.42-.54.59-.29.17-.73.17-.47 0-1-.26-.54-.26-1.24-.59-.7-.32-1.6-.58-.89-.26-2.12-.26-1.89 0-2.97.8-1.08.81-1.08 2.11 0 .86.56 1.44.56.59 1.48 1.03t2.09.79 2.38.77 2.38.95 2.09 1.35q.93.82 1.48 1.96.56 1.15.56 2.76 0 1.92-.69 3.55-.68 1.62-2.04 2.81-1.35 1.18-3.34 1.84-1.99.67-4.59.67-1.37 0-2.69-.25-1.31-.25-2.52-.69t-2.24-1.04q-1.02-.6-1.8-1.3l1.48-2.44q.29-.45.68-.68t.98-.23q.6 0 1.13.33.54.34 1.24.73t1.65.73 2.41.34q1.14 0 1.96-.28.82-.27 1.35-.71t.78-1.03q.25-.58.25-1.21 0-.93-.56-1.53t-1.48-1.04q-.93-.44-2.11-.79t-2.42-.77q-1.23-.42-2.42-.98-1.18-.55-2.1-1.41t-1.48-2.11-.56-3.01q0-1.64.65-3.12.65-1.49 1.91-2.59 1.26-1.11 3.14-1.77 1.89-.66 4.36-.66 2.76 0 5.02.91t3.77 2.39m5.12-14.85h6.42v22.13h1.2q.65 0 1.02-.17.38-.17.77-.69l6.63-8.19q.42-.54.92-.83.51-.29 1.32-.29h5.87l-8.29 9.91q-.88 1.17-1.92 1.79.54.39.97.91t.82 1.12l8.89 12.95h-5.8q-.75 0-1.3-.25-.54-.24-.91-.89l-6.81-10.12q-.36-.6-.75-.78t-1.17-.18h-1.46v12.22h-6.42zm28 11.96h6.45v26.68h-6.45zm7.33-7.77q0 .83-.33 1.56-.34.73-.9 1.27-.56.55-1.31.87-.76.33-1.62.33-.83 0-1.57-.33-.74-.32-1.29-.87-.54-.54-.87-1.27-.32-.73-.32-1.56 0-.86.32-1.61.33-.76.87-1.3.55-.55 1.29-.87.74-.33 1.57-.33.86 0 1.62.33.75.32 1.31.87.56.54.9 1.3.33.75.33 1.61m10.74 18.04h12.12q0-1.24-.35-2.35-.35-1.1-1.06-1.94-.7-.83-1.78-1.31t-2.51-.48q-2.78 0-4.38 1.59-1.6 1.58-2.04 4.49m16.38 3.88h-16.51q.16 2.05.73 3.55.57 1.49 1.51 2.47.93.97 2.22 1.45t2.85.48 2.69-.36 1.97-.81q.85-.44 1.49-.8.63-.37 1.23-.37.81 0 1.2.6l1.84 2.34q-1.06 1.25-2.39 2.09-1.32.85-2.77 1.36-1.44.5-2.94.71-1.49.21-2.89.21-2.79 0-5.18-.92-2.39-.93-4.16-2.73-1.77-1.81-2.78-4.48-1.01-2.66-1.01-6.17 0-2.73.88-5.14.88-2.4 2.53-4.18 1.66-1.78 4.03-2.82 2.38-1.04 5.37-1.04 2.53 0 4.66.8 2.13.81 3.66 2.36 1.54 1.54 2.41 3.79t.87 5.14q0 1.45-.31 1.96t-1.2.51m24.05-11.26-1.45 2.31q-.26.42-.55.59t-.73.17q-.47 0-1-.26t-1.23-.59q-.71-.32-1.6-.58-.9-.26-2.12-.26-1.9 0-2.98.8-1.08.81-1.08 2.11 0 .86.56 1.44.56.59 1.48 1.03.93.44 2.1.79t2.37.77q1.21.42 2.38.95t2.1 1.35q.92.82 1.48 1.96.56 1.15.56 2.76 0 1.92-.69 3.55-.69 1.62-2.04 2.81-1.35 1.18-3.34 1.84-1.99.67-4.59.67-1.38 0-2.69-.25-1.32-.25-2.53-.69-1.2-.44-2.23-1.04t-1.81-1.3l1.48-2.44q.29-.45.68-.68t.99-.23 1.13.33q.53.34 1.23.73.71.39 1.65.73.95.34 2.41.34 1.14 0 1.96-.28.82-.27 1.35-.71.54-.44.78-1.03.25-.58.25-1.21 0-.93-.56-1.53t-1.48-1.04-2.11-.79q-1.18-.35-2.41-.77-1.24-.42-2.42-.98-1.18-.55-2.11-1.41-.92-.86-1.48-2.11t-.56-3.01q0-1.64.65-3.12.65-1.49 1.91-2.59 1.26-1.11 3.15-1.77 1.88-.66 4.35-.66 2.76 0 5.02.91t3.77 2.39m30.81-13.81h7.02v37.6h-7.02v-16.43h-17.65v16.43h-7.02v-37.6h7.02v16.18h17.65zm30.94 10.92h6.42v26.68h-3.92q-1.28 0-1.61-1.17l-.45-2.13q-1.63 1.66-3.61 2.69t-4.65 1.03q-2.19 0-3.87-.75-1.67-.74-2.82-2.09-1.14-1.35-1.73-3.21-.58-1.86-.58-4.09v-16.96h6.42v16.96q0 2.44 1.13 3.78t3.4 1.34q1.66 0 3.12-.74 1.45-.74 2.75-2.04zm19.19 7.8v11.96q1.09 1.33 2.38 1.88 1.29.54 2.72.54 1.48 0 2.66-.53t2.02-1.67q.83-1.13 1.27-2.88.44-1.76.44-4.2 0-4.39-1.45-6.36-1.46-1.96-4.19-1.96-1.85 0-3.22.84-1.38.85-2.63 2.38m0-19.76v15.24q1.61-1.69 3.57-2.69 1.97-1 4.49-1 2.31 0 4.17.91t3.17 2.61q1.32 1.7 2.02 4.12t.7 5.44q0 3.25-.8 5.9-.81 2.65-2.31 4.53-1.49 1.89-3.6 2.93-2.1 1.04-4.68 1.04-1.24 0-2.26-.25-1.01-.24-1.87-.69-.86-.44-1.57-1.08-.72-.63-1.37-1.41l-.28 1.79q-.16.68-.54.96-.37.29-1.02.29h-4.24v-38.64zm62.56 29.77q.57 0 1.01.45l2.76 2.99q-2.29 2.83-5.63 4.34t-8.02 1.51q-4.19 0-7.53-1.43t-5.71-3.98q-2.36-2.55-3.63-6.09-1.26-3.53-1.26-7.72 0-4.24 1.36-7.76 1.35-3.52 3.8-6.07 2.46-2.55 5.87-3.97 3.4-1.41 7.54-1.41 4.11 0 7.29 1.35 3.19 1.35 5.42 3.54l-2.34 3.25q-.21.31-.53.54-.33.24-.9.24-.39 0-.8-.23-.42-.22-.91-.54-.5-.33-1.15-.72t-1.51-.71q-.85-.33-1.99-.55-1.13-.22-2.61-.22-2.52 0-4.61.9-2.1.9-3.6 2.6-1.51 1.7-2.34 4.16-.84 2.46-.84 5.6 0 3.17.9 5.64t2.43 4.16q1.54 1.69 3.62 2.59t4.47.9q1.43 0 2.58-.16 1.16-.15 2.14-.49.97-.34 1.84-.87.87-.54 1.73-1.32.26-.23.55-.37.28-.15.6-.15m7.64-29.77h6.42v38.64h-6.42zm13.05 11.96h6.45v26.68h-6.45zm7.33-7.77q0 .83-.33 1.56-.34.73-.9 1.27-.56.55-1.31.87-.76.33-1.62.33-.83 0-1.57-.33-.74-.32-1.29-.87-.54-.54-.87-1.27-.32-.73-.32-1.56 0-.86.32-1.61.33-.76.87-1.3.55-.55 1.29-.87.74-.33 1.57-.33.86 0 1.62.33.75.32 1.31.87.56.54.9 1.3.33.75.33 1.61m11.24 8.94.44 2.11q.8-.81 1.7-1.5.9-.68 1.9-1.17 1-.48 2.14-.75 1.15-.27 2.5-.27 2.18 0 3.87.74t2.82 2.08q1.14 1.34 1.72 3.2.59 1.86.59 4.09v16.98h-6.43v-16.98q0-2.44-1.11-3.78-1.12-1.34-3.41-1.34-1.66 0-3.12.75-1.46.76-2.76 2.06v19.29h-6.42v-26.68h3.93q1.25 0 1.64 1.17m23.97-1.17h6.45v26.68h-6.45zm7.33-7.77q0 .83-.34 1.56t-.9 1.27q-.55.55-1.31.87-.75.33-1.61.33-.83 0-1.57-.33-.74-.32-1.29-.87-.55-.54-.87-1.27-.33-.73-.33-1.56 0-.86.33-1.61.32-.76.87-1.3.55-.55 1.29-.87.74-.33 1.57-.33.86 0 1.61.33.76.32 1.31.87.56.54.9 1.3.34.75.34 1.61m26.47 11.08-1.69 2.34q-.29.36-.56.57t-.79.21q-.5 0-.97-.3-.46-.3-1.11-.68t-1.55-.68q-.9-.29-2.22-.29-1.69 0-2.97.61-1.27.61-2.12 1.75-.84 1.15-1.26 2.77-.41 1.63-.41 3.68 0 2.13.45 3.8.46 1.66 1.31 2.79.86 1.13 2.08 1.72 1.23.58 2.76.58t2.48-.38q.95-.37 1.6-.83.65-.45 1.13-.83t1.08-.38q.78 0 1.17.6l1.85 2.34q-1.07 1.25-2.32 2.09-1.24.85-2.58 1.36-1.34.5-2.76.71t-2.82.21q-2.47 0-4.65-.92-2.19-.93-3.83-2.69-1.63-1.77-2.58-4.33t-.95-5.84q0-2.94.84-5.45.85-2.51 2.49-4.34 1.63-1.83 4.05-2.87t5.57-1.04q2.99 0 5.23.96 2.25.96 4.05 2.76m21.99-.42-1.45 2.31q-.26.42-.55.59-.28.17-.73.17-.46 0-1-.26-.53-.26-1.23-.59-.7-.32-1.6-.58t-2.12-.26q-1.9 0-2.98.8-1.08.81-1.08 2.11 0 .86.56 1.44.56.59 1.48 1.03.93.44 2.1.79t2.38.77 2.38.95 2.09 1.35 1.48 1.96q.56 1.15.56 2.76 0 1.92-.69 3.55-.69 1.62-2.04 2.81-1.35 1.18-3.34 1.84-1.99.67-4.59.67-1.38 0-2.69-.25t-2.52-.69-2.24-1.04-1.81-1.3l1.49-2.44q.28-.45.67-.68t.99-.23 1.13.33q.53.34 1.24.73.7.39 1.65.73t2.4.34q1.15 0 1.96-.28.82-.27 1.36-.71.53-.44.78-1.03.24-.58.24-1.21 0-.93-.56-1.53-.55-.6-1.48-1.04-.92-.44-2.1-.79-1.19-.35-2.42-.77-1.24-.42-2.42-.98-1.18-.55-2.11-1.41-.92-.86-1.48-2.11t-.56-3.01q0-1.64.65-3.12.65-1.49 1.91-2.59 1.27-1.11 3.15-1.77 1.89-.66 4.36-.66 2.75 0 5.01.91 2.27.91 3.77 2.39m25.77 5.1h5.23q1.92 0 3.35-.49 1.43-.48 2.38-1.37.95-.9 1.42-2.19.46-1.28.46-2.87 0-1.51-.46-2.73-.47-1.22-1.41-2.08-.93-.86-2.36-1.31-1.43-.46-3.38-.46h-5.23zm-6.99-18.91h12.22q3.77 0 6.52.89 2.76.88 4.55 2.47 1.8 1.58 2.67 3.79t.87 4.84q0 2.73-.91 5-.91 2.28-2.73 3.92t-4.57 2.55q-2.74.91-6.4.91h-5.23v13.23h-6.99zm31.25-1.04h6.42v38.64h-6.42zm26.93 31.75v-4.5q-2.78.13-4.68.48-1.89.35-3.04.9-1.14.55-1.64 1.27-.49.73-.49 1.59 0 1.69 1 2.42t2.61.73q1.98 0 3.42-.72 1.45-.71 2.82-2.17m-13.57-14.01-1.14-2.06q4.6-4.21 11.07-4.21 2.34 0 4.19.77 1.85.76 3.12 2.13 1.27 1.36 1.94 3.26.66 1.9.66 4.16v16.85h-2.91q-.91 0-1.41-.27-.49-.28-.78-1.11l-.57-1.92q-1.01.91-1.97 1.6-.97.69-2.01 1.15-1.04.47-2.22.72t-2.61.25q-1.69 0-3.12-.46-1.43-.45-2.47-1.36t-1.61-2.27q-.58-1.35-.58-3.14 0-1.02.34-2.02t1.11-1.91q.76-.91 1.99-1.71 1.22-.81 3-1.41t4.15-.97q2.36-.38 5.4-.46v-1.56q0-2.68-1.14-3.96-1.14-1.29-3.3-1.29-1.56 0-2.59.36-1.03.37-1.81.82-.78.46-1.41.82-.64.37-1.42.37-.68 0-1.14-.36-.47-.35-.76-.81m46.67-2.47-1.69 2.34q-.28.36-.56.57-.27.21-.79.21-.49 0-.96-.3t-1.12-.68-1.55-.68q-.89-.29-2.22-.29-1.69 0-2.96.61-1.28.61-2.12 1.75-.85 1.15-1.26 2.77-.42 1.63-.42 3.68 0 2.13.45 3.8.46 1.66 1.32 2.79t2.08 1.72q1.22.58 2.75.58 1.54 0 2.49-.38.95-.37 1.6-.83.65-.45 1.13-.83t1.08-.38q.78 0 1.17.6l1.84 2.34q-1.06 1.25-2.31 2.09-1.25.85-2.59 1.36-1.34.5-2.76.71-1.41.21-2.82.21-2.47 0-4.65-.92-2.18-.93-3.82-2.69-1.64-1.77-2.59-4.33t-.95-5.84q0-2.94.85-5.45.84-2.51 2.48-4.34t4.06-2.87q2.41-1.04 5.56-1.04 2.99 0 5.24.96t4.04 2.76m9.34 6.96h12.11q0-1.24-.35-2.35-.35-1.1-1.05-1.94-.7-.83-1.78-1.31t-2.51-.48q-2.78 0-4.38 1.59-1.6 1.58-2.04 4.49m16.38 3.88h-16.51q.15 2.05.72 3.55.58 1.49 1.51 2.47.94.97 2.22 1.45 1.29.48 2.85.48t2.69-.36 1.98-.81q.84-.44 1.48-.8.64-.37 1.24-.37.8 0 1.19.6l1.85 2.34q-1.07 1.25-2.39 2.09-1.33.85-2.77 1.36-1.45.5-2.94.71-1.5.21-2.9.21-2.78 0-5.17-.92-2.4-.93-4.16-2.73-1.77-1.81-2.79-4.48-1.01-2.66-1.01-6.17 0-2.73.88-5.14.89-2.4 2.54-4.18t4.03-2.82 5.37-1.04q2.52 0 4.65.8 2.13.81 3.67 2.36 1.53 1.54 2.4 3.79t.87 5.14q0 1.45-.31 1.96t-1.19.51m12.74-26.11v14.82q1.56-1.45 3.43-2.36t4.39-.91q2.19 0 3.88.74t2.82 2.08 1.71 3.2q.59 1.86.59 4.09v16.98h-6.42v-16.98q0-2.44-1.12-3.78t-3.41-1.34q-1.66 0-3.12.75-1.45.76-2.75 2.06v19.29h-6.43v-38.64zm34.71 11.55q2.96 0 5.39.96t4.16 2.73 2.67 4.32q.93 2.54.93 5.69 0 3.17-.93 5.72-.94 2.55-2.67 4.34-1.73 1.8-4.16 2.76t-5.39.96q-2.99 0-5.44-.96-2.44-.96-4.17-2.76-1.73-1.79-2.68-4.34t-.95-5.72q0-3.15.95-5.69.95-2.55 2.68-4.32t4.17-2.73q2.45-.96 5.44-.96m0 22.54q3.32 0 4.92-2.24 1.6-2.23 1.6-6.55 0-4.31-1.6-6.58-1.6-2.26-4.92-2.26-3.38 0-5.01 2.28-1.62 2.27-1.62 6.56t1.62 6.54q1.63 2.25 5.01 2.25m18.14-34.09h6.43v38.64h-6.43zm29.59 30.74v-11.96q-1.09-1.33-2.38-1.88-1.28-.54-2.77-.54-1.45 0-2.62.54-1.17.55-2 1.65-.84 1.11-1.28 2.81-.44 1.71-.44 4.02 0 2.34.38 3.97.37 1.62 1.08 2.65.7 1.02 1.71 1.48 1.02.45 2.26.45 2.01 0 3.41-.83t2.65-2.36m0-30.74h6.42v38.64h-3.92q-1.28 0-1.61-1.17l-.55-2.57q-1.61 1.84-3.71 2.99-2.09 1.14-4.87 1.14-2.18 0-4-.91t-3.14-2.64q-1.31-1.73-2.03-4.28-.71-2.54-.71-5.82 0-2.96.81-5.51.8-2.55 2.31-4.42t3.61-2.93q2.11-1.05 4.74-1.05 2.23 0 3.82.7 1.58.7 2.83 1.9zm17.84 22.23h12.11q0-1.24-.35-2.35-.35-1.1-1.05-1.94-.7-.83-1.78-1.31t-2.51-.48q-2.78 0-4.38 1.59-1.6 1.58-2.04 4.49m16.38 3.88h-16.51q.15 2.05.73 3.55.57 1.49 1.5 2.47.94.97 2.23 1.45 1.28.48 2.84.48t2.69-.36q1.14-.36 1.98-.81.85-.44 1.48-.8.64-.37 1.24-.37.8 0 1.19.6l1.85 2.34q-1.07 1.25-2.39 2.09-1.33.85-2.77 1.36-1.44.5-2.94.71-1.49.21-2.9.21-2.78 0-5.17-.92-2.39-.93-4.16-2.73-1.77-1.81-2.78-4.48-1.02-2.66-1.02-6.17 0-2.73.89-5.14.88-2.4 2.53-4.18t4.03-2.82 5.37-1.04q2.52 0 4.65.8 2.14.81 3.67 2.36 1.53 1.54 2.4 3.79.88 2.25.88 5.14 0 1.45-.32 1.96-.31.51-1.19.51m11.98-12.53.39 3.01q1.25-2.39 2.97-3.76 1.71-1.36 4.05-1.36 1.85 0 2.97.81l-.42 4.81q-.13.46-.38.66-.24.19-.66.19-.39 0-1.16-.13-.76-.13-1.49-.13-1.07 0-1.9.32-.83.31-1.49.89-.67.59-1.17 1.42-.51.83-.95 1.9v16.43h-6.42v-26.68h3.77q.98 0 1.37.35.39.36.52 1.27"/></svg>