<svg xmlns="http://www.w3.org/2000/svg" width="1200" height="700" viewBox="0 0 1200 700"><rect width="100%" height="100%" fill="#0d1b2a"/><path fill="#ffffff" d="M262.385 334.01h6.08v32.53h-6.08v-14.22h-15.28v14.22h-6.07v-32.53h6.07V348h15.28zm26.78 9.44h5.55v23.09h-3.39q-1.11 0-1.4-1.01l-.38-1.85q-1.42 1.44-3.13 2.33t-4.03.89q-1.89 0-3.34-.64t-2.44-1.81-1.5-2.78q-.5-1.61-.5-3.54v-14.68h5.56v14.68q0 2.11.97 3.27.98 1.16 2.94 1.16 1.44 0 2.7-.64t2.39-1.77zm26.39 2.5-1.26 2q-.23.37-.47.51-.25.15-.63.15-.41 0-.87-.23-.46-.22-1.07-.5-.61-.29-1.38-.51-.78-.22-1.84-.22-1.64 0-2.57.69-.94.7-.94 1.82 0 .75.49 1.25.48.51 1.28.89.8.39 1.81.69t2.06.66 2.06.82 1.81 1.17 1.28 1.7q.49.99.49 2.39 0 1.66-.6 3.07t-1.77 2.43-2.89 1.6q-1.72.57-3.97.57-1.19 0-2.33-.21-1.13-.22-2.18-.6t-1.94-.9q-.88-.52-1.56-1.13l1.28-2.11q.25-.38.59-.58.34-.21.85-.21.52 0 .98.3.46.29 1.07.62.61.34 1.43.64.82.29 2.08.29.99 0 1.7-.24.71-.23 1.17-.62.46-.38.67-.89.22-.5.22-1.04 0-.81-.49-1.33-.48-.52-1.28-.9t-1.82-.69q-1.02-.3-2.09-.66t-2.1-.84q-1.02-.49-1.82-1.23t-1.28-1.82-.48-2.61q0-1.42.56-2.7t1.65-2.24 2.72-1.53q1.64-.58 3.77-.58 2.39 0 4.35.79 1.95.79 3.26 2.07m4.43-12.85h5.56v19.15h1.03q.57 0 .89-.14.33-.15.67-.6l5.73-7.09q.36-.47.8-.72t1.14-.25h5.08l-7.17 8.58q-.77 1.01-1.67 1.55.47.34.84.79.38.45.71.96l7.7 11.21h-5.02q-.65 0-1.12-.21-.48-.22-.79-.78l-5.9-8.75q-.31-.52-.65-.68-.34-.15-1.01-.15h-1.26v10.57h-5.56zm24.23 10.35h5.58v23.09h-5.58zm6.35-6.72q0 .72-.29 1.35-.3.63-.78 1.1t-1.14.75q-.65.29-1.39.29-.72 0-1.36-.29-.64-.28-1.12-.75-.47-.47-.75-1.1t-.28-1.35q0-.74.28-1.4.28-.65.75-1.12.48-.47 1.12-.76.64-.28 1.36-.28.74 0 1.39.28.66.29 1.14.76t.78 1.12q.29.66.29 1.4m9.29 15.61h10.49q0-1.08-.31-2.03-.3-.96-.91-1.68t-1.54-1.14q-.93-.41-2.17-.41-2.41 0-3.79 1.37-1.39 1.37-1.77 3.89m14.18 3.36h-14.29q.13 1.77.63 3.07.49 1.29 1.3 2.13.81.85 1.93 1.26 1.11.42 2.46.42t2.33-.31q.98-.32 1.71-.7t1.28-.7q.55-.31 1.07-.31.7 0 1.04.51l1.59 2.03q-.92 1.08-2.07 1.81-1.14.73-2.39 1.17t-2.55.62q-1.29.18-2.5.18-2.41 0-4.48-.8t-3.6-2.36q-1.53-1.57-2.41-3.87-.88-2.31-.88-5.35 0-2.36.77-4.44.76-2.08 2.19-3.62t3.49-2.44q2.06-.91 4.65-.91 2.18 0 4.02.7 1.85.7 3.18 2.04 1.32 1.34 2.08 3.28.75 1.95.75 4.45 0 1.26-.27 1.7t-1.03.44m20.81-9.75-1.26 2q-.23.37-.47.51-.25.15-.63.15-.41 0-.87-.23-.46-.22-1.07-.5-.61-.29-1.38-.51-.78-.22-1.84-.22-1.64 0-2.57.69-.94.7-.94 1.82 0 .75.49 1.25.48.51 1.28.89.8.39 1.81.69t2.06.66 2.06.82 1.81 1.17 1.28 1.7q.49.99.49 2.39 0 1.66-.6 3.07t-1.77 2.43-2.89 1.6q-1.72.57-3.97.57-1.19 0-2.33-.21-1.13-.22-2.18-.6t-1.94-.9q-.88-.52-1.56-1.13l1.28-2.11q.25-.38.59-.58.34-.21.85-.21.52 0 .98.3.46.29 1.07.62.61.34 1.43.64.82.29 2.08.29.99 0 1.7-.24.71-.23 1.17-.62.46-.38.67-.89.22-.5.22-1.04 0-.81-.49-1.33-.48-.52-1.28-.9t-1.82-.69q-1.02-.3-2.09-.66t-2.1-.84q-1.02-.49-1.82-1.23t-1.28-1.82-.48-2.61q0-1.42.56-2.7t1.65-2.24 2.72-1.53q1.64-.58 3.77-.58 2.39 0 4.35.79 1.95.79 3.26 2.07m26.66-11.94h6.08v32.53h-6.08v-14.22h-15.28v14.22h-6.07v-32.53h6.07V348h15.28zm26.78 9.44h5.55v23.09h-3.39q-1.11 0-1.4-1.01l-.38-1.85q-1.42 1.44-3.13 2.33t-4.03.89q-1.89 0-3.34-.64t-2.44-1.81-1.5-2.78q-.5-1.61-.5-3.54v-14.68h5.56v14.68q0 2.11.97 3.27.98 1.16 2.94 1.16 1.44 0 2.7-.64t2.39-1.77zm16.6 6.75v10.36q.95 1.14 2.06 1.61 1.11.48 2.35.48 1.28 0 2.31-.46 1.02-.46 1.74-1.44t1.1-2.5q.39-1.52.39-3.63 0-3.81-1.26-5.51t-3.63-1.7q-1.59 0-2.79.74-1.19.73-2.27 2.05m0-17.1v13.19q1.4-1.46 3.09-2.33 1.7-.87 3.89-.87 2 0 3.61.79t2.74 2.26q1.14 1.48 1.75 3.57.6 2.09.6 4.7 0 2.82-.69 5.11-.7 2.3-2 3.93-1.29 1.63-3.11 2.53t-4.05.9q-1.08 0-1.96-.22-.88-.21-1.62-.59t-1.36-.94q-.62-.55-1.18-1.22l-.25 1.55q-.13.59-.46.83-.33.25-.89.25h-3.67V333.1zm60.68 17.17q0 3.58-1.19 6.57t-3.35 5.16q-2.16 2.16-5.2 3.35t-6.75 1.19h-12.4v-32.53h12.4q3.71 0 6.75 1.2t5.2 3.35 3.35 5.14q1.19 3 1.19 6.57m-6.21 0q0-2.68-.71-4.8-.7-2.13-2.04-3.6t-3.24-2.26-4.29-.79h-6.32v22.91h6.32q2.39 0 4.29-.79t3.24-2.26q1.34-1.48 2.04-3.6.71-2.13.71-4.81m22.86 10.31v-3.9q-2.4.12-4.05.42-1.64.31-2.63.78t-1.42 1.1q-.42.63-.42 1.37 0 1.47.86 2.1.87.63 2.26.63 1.71 0 2.96-.62t2.44-1.88m-11.74-12.13-.99-1.78q3.98-3.64 9.58-3.64 2.03 0 3.63.66 1.59.67 2.7 1.85 1.1 1.18 1.67 2.82.58 1.64.58 3.6v14.58h-2.52q-.79 0-1.22-.24-.43-.23-.67-.95l-.5-1.67q-.88.79-1.71 1.39-.83.59-1.73 1-.9.4-1.93.62-1.02.21-2.26.21-1.46 0-2.7-.39-1.23-.4-2.13-1.18-.9-.79-1.4-1.96-.49-1.17-.49-2.72 0-.88.29-1.75.29-.86.95-1.65.67-.79 1.73-1.49 1.05-.69 2.59-1.21 1.55-.52 3.59-.85 2.05-.32 4.68-.39v-1.35q0-2.32-.99-3.43-.99-1.12-2.85-1.12-1.35 0-2.24.32-.89.31-1.57.71l-1.22.71q-.55.31-1.23.31-.58 0-.99-.3-.4-.3-.65-.71m37.73-2.5-1.26 2q-.22.37-.47.51-.25.15-.63.15-.41 0-.87-.23-.46-.22-1.07-.5-.6-.29-1.38-.51t-1.83-.22q-1.65 0-2.58.69-.93.7-.93 1.82 0 .75.48 1.25.48.51 1.28.89.8.39 1.81.69 1.02.3 2.06.66 1.05.36 2.06.82t1.81 1.17 1.28 1.7q.49.99.49 2.39 0 1.66-.6 3.07-.59 1.41-1.76 2.43t-2.9 1.6q-1.72.57-3.97.57-1.19 0-2.33-.21-1.13-.22-2.18-.6-1.04-.38-1.93-.9t-1.57-1.13l1.29-2.11q.24-.38.58-.58.34-.21.86-.21.51 0 .97.3.47.29 1.07.62.61.34 1.43.64.82.29 2.08.29.99 0 1.7-.24.71-.23 1.17-.62.46-.38.68-.89.21-.5.21-1.04 0-.81-.48-1.33-.49-.52-1.29-.9-.79-.38-1.82-.69-1.02-.3-2.09-.66t-2.09-.84q-1.03-.49-1.83-1.23-.79-.74-1.28-1.82-.48-1.08-.48-2.61 0-1.42.56-2.7t1.65-2.24q1.1-.96 2.73-1.53 1.63-.58 3.77-.58 2.38 0 4.34.79t3.26 2.07m9.99-12.85v12.83q1.35-1.26 2.97-2.05t3.8-.79q1.89 0 3.36.65 1.46.64 2.44 1.8t1.48 2.76q.51 1.61.51 3.55v14.69h-5.56v-14.69q0-2.12-.97-3.28-.96-1.16-2.94-1.16-1.44 0-2.7.66-1.26.65-2.39 1.77v16.7h-5.56V333.1zm25.38 17.1v10.36q.95 1.14 2.06 1.61 1.11.48 2.35.48 1.28 0 2.31-.46 1.02-.46 1.74-1.44t1.1-2.5q.39-1.52.39-3.63 0-3.81-1.26-5.51t-3.63-1.7q-1.59 0-2.79.74-1.19.73-2.27 2.05m0-17.1v13.19q1.4-1.46 3.09-2.33 1.7-.87 3.89-.87 2 0 3.61.79t2.74 2.26q1.14 1.48 1.75 3.57.6 2.09.6 4.7 0 2.82-.69 5.11-.7 2.3-2 3.93-1.29 1.63-3.11 2.53t-4.05.9q-1.08 0-1.96-.22-.88-.21-1.62-.59t-1.36-.94q-.62-.55-1.18-1.22l-.25 1.55q-.13.59-.46.83-.33.25-.89.25h-3.67V333.1zm30.2 9.99q2.56 0 4.66.84 2.11.83 3.6 2.36 1.5 1.53 2.31 3.73.81 2.21.81 4.93 0 2.75-.81 4.95-.81 2.21-2.31 3.76-1.49 1.55-3.6 2.39-2.1.83-4.66.83-2.59 0-4.71-.83-2.11-.84-3.61-2.39-1.49-1.55-2.32-3.76-.82-2.2-.82-4.95 0-2.72.82-4.93.83-2.2 2.32-3.73 1.5-1.53 3.61-2.36 2.12-.84 4.71-.84m0 19.51q2.88 0 4.26-1.93 1.38-1.94 1.38-5.67 0-3.74-1.38-5.69-1.38-1.96-4.26-1.96-2.93 0-4.34 1.97-1.4 1.97-1.4 5.68t1.4 5.66q1.41 1.94 4.34 1.94m27.83-2.02v-3.9q-2.41.12-4.05.42-1.64.31-2.63.78t-1.42 1.1-.43 1.37q0 1.47.87 2.1.86.63 2.26.63 1.71 0 2.96-.62t2.44-1.88m-11.75-12.13-.99-1.78q3.99-3.64 9.59-3.64 2.02 0 3.62.66 1.6.67 2.7 1.85t1.68 2.82q.57 1.64.57 3.6v14.58h-2.52q-.79 0-1.21-.24-.43-.23-.68-.95l-.49-1.67q-.88.79-1.71 1.39-.84.59-1.74 1-.9.4-1.92.62-1.02.21-2.26.21-1.46 0-2.7-.39-1.24-.4-2.14-1.18-.9-.79-1.39-1.96-.5-1.17-.5-2.72 0-.88.29-1.75.3-.86.96-1.65t1.72-1.49q1.06-.69 2.6-1.21t3.59-.85q2.05-.32 4.68-.39v-1.35q0-2.32-.99-3.43-.99-1.12-2.86-1.12-1.35 0-2.24.32-.89.31-1.56.71-.68.39-1.23.71-.55.31-1.22.31-.59 0-.99-.3-.41-.3-.66-.71m27.3-3.6.33 2.61q1.08-2.07 2.57-3.25 1.48-1.18 3.51-1.18 1.6 0 2.56.7l-.36 4.16q-.11.4-.32.57-.22.17-.58.17-.33 0-1-.11-.66-.11-1.29-.11-.92 0-1.64.27t-1.3.77q-.57.51-1.01 1.23t-.82 1.64v14.22h-5.56v-23.09h3.26q.86 0 1.2.31.33.3.45 1.09m26.37 14.85v-10.35q-.95-1.15-2.06-1.62-1.12-.47-2.4-.47-1.26 0-2.27.47t-1.73 1.43q-.72.95-1.11 2.43-.38 1.47-.38 3.48 0 2.02.33 3.43.32 1.4.93 2.29t1.49 1.28q.87.4 1.95.4 1.74 0 2.95-.72 1.22-.72 2.3-2.05m0-26.6h5.55v33.44h-3.39q-1.11 0-1.4-1.01l-.47-2.23q-1.4 1.6-3.21 2.59t-4.22.99q-1.89 0-3.46-.79-1.58-.79-2.71-2.28-1.14-1.5-1.76-3.7-.62-2.21-.62-5.04 0-2.57.7-4.78.7-2.2 2-3.82 1.31-1.62 3.13-2.53t4.1-.91q1.93 0 3.3.61 1.38.6 2.46 1.64zm28.91 17.26h4.52q1.67 0 2.9-.41 1.24-.42 2.06-1.2.82-.77 1.23-1.89.4-1.11.4-2.48 0-1.31-.4-2.36-.41-1.06-1.22-1.8-.81-.75-2.04-1.14-1.24-.4-2.93-.4h-4.52zm-6.05-16.35h10.57q3.26 0 5.65.76 2.38.77 3.94 2.14 1.55 1.37 2.3 3.28.76 1.92.76 4.19 0 2.36-.79 4.33t-2.36 3.38q-1.58 1.42-3.95 2.21-2.38.79-5.55.79h-4.52v11.45h-6.05zm27.04-.91h5.56v33.44h-5.56zm23.31 27.48v-3.9q-2.41.12-4.05.42-1.64.31-2.63.78t-1.42 1.1-.43 1.37q0 1.47.87 2.1t2.26.63q1.71 0 2.96-.62t2.44-1.88m-11.74-12.13-.99-1.78q3.98-3.64 9.58-3.64 2.03 0 3.62.66 1.6.67 2.7 1.85 1.11 1.18 1.68 2.82t.57 3.6v14.58h-2.52q-.78 0-1.21-.24-.43-.23-.68-.95l-.49-1.67q-.88.79-1.71 1.39-.83.59-1.73 1-.9.4-1.93.62-1.02.21-2.26.21-1.46 0-2.7-.39-1.24-.4-2.14-1.18-.9-.79-1.39-1.96-.5-1.17-.5-2.72 0-.88.3-1.75.29-.86.95-1.65.67-.79 1.72-1.49 1.06-.69 2.6-1.21t3.59-.85q2.05-.32 4.68-.39v-1.35q0-2.32-.99-3.43-.99-1.12-2.86-1.12-1.35 0-2.24.32-.88.31-1.56.71-.67.39-1.23.71-.55.31-1.22.31-.59 0-.99-.3-.41-.3-.65-.71m40.38-2.14-1.46 2.03q-.25.31-.48.49-.24.18-.69.18-.43 0-.83-.26-.41-.25-.97-.58t-1.34-.59q-.77-.25-1.92-.25-1.46 0-2.57.52-1.1.53-1.83 1.52t-1.09 2.4q-.36 1.4-.36 3.18 0 1.85.39 3.29.4 1.44 1.14 2.42.74.97 1.8 1.48t2.38.51q1.33 0 2.15-.33.82-.32 1.39-.72.56-.39.97-.72.42-.32.94-.32.67 0 1.01.51l1.6 2.03q-.92 1.08-2 1.81t-2.24 1.17-2.39.62q-1.22.18-2.44.18-2.14 0-4.03-.8t-3.3-2.33q-1.42-1.53-2.24-3.75-.82-2.21-.82-5.05 0-2.54.73-4.71t2.15-3.76q1.41-1.58 3.51-2.48 2.09-.91 4.81-.91 2.59 0 4.53.84 1.95.83 3.5 2.38m8.08 6.03h10.49q0-1.08-.31-2.03-.3-.96-.91-1.68t-1.54-1.14q-.93-.41-2.17-.41-2.41 0-3.79 1.37-1.39 1.37-1.77 3.89m14.18 3.36h-14.29q.13 1.77.63 3.07.49 1.29 1.3 2.13.81.85 1.93 1.26 1.11.42 2.46.42t2.33-.31q.98-.32 1.71-.7t1.28-.7q.55-.31 1.07-.31.7 0 1.04.51l1.59 2.03q-.92 1.08-2.07 1.81-1.14.73-2.39 1.17t-2.55.62q-1.29.18-2.5.18-2.41 0-4.48-.8t-3.6-2.36q-1.53-1.57-2.41-3.87-.88-2.31-.88-5.35 0-2.36.77-4.44.76-2.08 2.19-3.62t3.49-2.44q2.06-.91 4.65-.91 2.18 0 4.02.7 1.85.7 3.18 2.04 1.32 1.34 2.08 3.28.75 1.95.75 4.45 0 1.26-.27 1.7t-1.03.44m11.02-22.6v12.83q1.35-1.26 2.97-2.05t3.8-.79q1.89 0 3.36.65 1.46.64 2.44 1.8t1.48 2.76q.51 1.61.51 3.55v14.69h-5.56v-14.69q0-2.12-.97-3.28-.96-1.16-2.94-1.16-1.44 0-2.7.66-1.26.65-2.39 1.77v16.7h-5.56V333.1zm30.04 9.99q2.56 0 4.67.84 2.1.83 3.6 2.36 1.49 1.53 2.3 3.73.81 2.21.81 4.93 0 2.75-.81 4.95-.81 2.21-2.3 3.76-1.5 1.55-3.6 2.39-2.11.83-4.67.83-2.59 0-4.7-.83-2.12-.84-3.62-2.39-1.49-1.55-2.31-3.76-.82-2.2-.82-4.95 0-2.72.82-4.93.82-2.2 2.31-3.73 1.5-1.53 3.62-2.36 2.11-.84 4.7-.84m0 19.51q2.88 0 4.26-1.93 1.39-1.94 1.39-5.67 0-3.74-1.39-5.69-1.38-1.96-4.26-1.96-2.93 0-4.33 1.97-1.41 1.97-1.41 5.68t1.41 5.66q1.4 1.94 4.33 1.94m15.7-29.5h5.56v33.44h-5.56zm25.61 26.6v-10.35q-.95-1.15-2.06-1.62t-2.4-.47q-1.26 0-2.27.47t-1.73 1.43q-.72.95-1.1 2.43-.39 1.47-.39 3.48 0 2.02.33 3.43.33 1.4.93 2.29.61.89 1.49 1.28.88.4 1.96.4 1.73 0 2.94-.72 1.22-.72 2.3-2.05m0-26.6h5.56v33.44h-3.4q-1.1 0-1.4-1.01l-.47-2.23q-1.39 1.6-3.21 2.59-1.81.99-4.21.99-1.89 0-3.47-.79-1.57-.79-2.71-2.28-1.14-1.5-1.76-3.7-.61-2.21-.61-5.04 0-2.57.69-4.78.7-2.2 2.01-3.82 1.3-1.62 3.12-2.53 1.83-.91 4.1-.91 1.93 0 3.31.61 1.37.6 2.45 1.64zm15.43 19.24h10.49q0-1.08-.31-2.03-.3-.96-.91-1.68-.6-.72-1.54-1.14-.93-.41-2.17-.41-2.41 0-3.79 1.37t-1.77 3.89m14.18 3.36h-14.29q.14 1.77.63 3.07.5 1.29 1.31 2.13.81.85 1.92 1.26 1.11.42 2.46.42t2.33-.31q.98-.32 1.71-.7t1.28-.7q.56-.31 1.07-.31.7 0 1.04.51l1.6 2.03q-.93 1.08-2.07 1.81-1.15.73-2.4 1.17t-2.54.62q-1.3.18-2.51.18-2.41 0-4.48-.8t-3.6-2.36q-1.53-1.57-2.41-3.87-.87-2.31-.87-5.35 0-2.36.76-4.44.77-2.08 2.19-3.62 1.43-1.54 3.49-2.44 2.06-.91 4.65-.91 2.18 0 4.03.7 1.84.7 3.17 2.04t2.08 3.28q.75 1.95.75 4.45 0 1.26-.27 1.7t-1.03.44m10.37-10.85.34 2.61q1.08-2.07 2.56-3.25 1.49-1.18 3.51-1.18 1.6 0 2.57.7l-.36 4.16q-.11.4-.33.57-.21.17-.57.17-.34 0-1-.11-.67-.11-1.3-.11-.92 0-1.64.27t-1.29.77q-.58.51-1.02 1.23-.43.72-.82 1.64v14.22h-5.55v-23.09h3.26q.85 0 1.19.31.34.3.45 1.09"/></svg>