<svg xmlns="http://www.w3.org/2000/svg" width="1200" height="700" viewBox="0 0 1200 700"><rect width="100%" height="100%" fill="#415a77"/><path fill="#ffffff" d="M259.78 331.005h5.8v31.09h-5.8v-13.59h-14.6v13.59h-5.8v-31.09h5.8v13.37h14.6zm25.58 9.03h5.32v22.06h-3.25q-1.05 0-1.33-.97l-.37-1.76q-1.35 1.38-2.99 2.22-1.63.85-3.85.85-1.8 0-3.19-.61t-2.33-1.73q-.95-1.12-1.43-2.65-.49-1.54-.49-3.39v-14.02h5.31v14.02q0 2.02.94 3.13.94 1.1 2.81 1.1 1.37 0 2.58-.61 1.2-.61 2.27-1.69zm25.22 2.39-1.2 1.91q-.21.34-.45.48t-.6.14q-.39 0-.83-.21-.44-.22-1.02-.48-.58-.27-1.32-.49-.75-.21-1.76-.21-1.57 0-2.46.66-.89.67-.89 1.74 0 .71.46 1.2.46.48 1.23.85.76.36 1.73.65t1.96.64q1 .34 1.97.78t1.73 1.12q.77.68 1.23 1.62.46.95.46 2.28 0 1.59-.57 2.94-.57 1.34-1.69 2.32-1.11.98-2.76 1.53-1.64.54-3.79.54-1.14 0-2.23-.2t-2.09-.57q-.99-.37-1.84-.86t-1.5-1.08l1.23-2.02q.23-.36.56-.56.32-.19.81-.19.5 0 .94.28t1.02.6q.58.33 1.36.6.79.28 1.99.28.95 0 1.63-.22.67-.23 1.11-.59.45-.37.65-.85.2-.49.2-1 0-.78-.46-1.27t-1.22-.86q-.77-.37-1.75-.66-.97-.29-1.99-.63-1.03-.34-2-.81-.98-.46-1.75-1.17-.76-.71-1.22-1.74t-.46-2.49q0-1.36.53-2.58.54-1.23 1.58-2.14 1.05-.92 2.61-1.46 1.55-.55 3.6-.55 2.28 0 4.15.75t3.11 1.98m4.24-12.28h5.31v18.3h.99q.54 0 .85-.14t.63-.57l5.49-6.77q.34-.46.76-.69.42-.24 1.08-.24h4.86l-6.86 8.19q-.73.97-1.59 1.49.46.32.81.75t.68.92l7.35 10.71h-4.79q-.63 0-1.08-.2-.45-.21-.75-.75l-5.63-8.36q-.31-.49-.63-.64-.32-.16-.97-.16h-1.2v10.11h-5.31zm23.16 9.89h5.33v22.06h-5.33zm6.06-6.43q0 .69-.28 1.29t-.74 1.06q-.47.45-1.09.72-.62.26-1.33.26-.69 0-1.3-.26-.62-.27-1.07-.72-.45-.46-.72-1.06t-.27-1.29q0-.71.27-1.33t.72-1.08q.45-.45 1.07-.72.61-.26 1.3-.26.71 0 1.33.26.62.27 1.09.72.46.46.74 1.08t.28 1.33m8.88 14.92h10.02q0-1.03-.29-1.94-.29-.92-.87-1.6-.58-.69-1.48-1.09-.89-.4-2.07-.4-2.3 0-3.62 1.31-1.33 1.32-1.69 3.72m13.54 3.21h-13.65q.13 1.7.6 2.93.48 1.24 1.25 2.04.77.81 1.84 1.21 1.06.4 2.35.4t2.23-.3q.93-.31 1.63-.67.7-.37 1.23-.67.52-.3 1.02-.3.66 0 .99.5l1.52 1.93q-.88 1.03-1.97 1.73-1.1.7-2.29 1.12-1.2.42-2.43.59-1.24.17-2.4.17-2.3 0-4.28-.76t-3.44-2.26q-1.46-1.49-2.3-3.7-.84-2.2-.84-5.1 0-2.26.73-4.25t2.1-3.46q1.36-1.47 3.33-2.33t4.44-.86q2.09 0 3.85.66 1.76.67 3.03 1.95t1.99 3.14.72 4.24q0 1.21-.26 1.63t-.99.42m19.89-9.31-1.2 1.91q-.22.34-.46.48-.23.14-.6.14-.38 0-.83-.21-.44-.22-1.02-.48-.58-.27-1.32-.49-.74-.21-1.75-.21-1.57 0-2.46.66-.89.67-.89 1.74 0 .71.46 1.2.46.48 1.22.85.77.36 1.73.65.97.29 1.97.64 1 .34 1.97.78t1.73 1.12 1.22 1.62q.47.95.47 2.28 0 1.59-.57 2.94-.57 1.34-1.69 2.32t-2.76 1.53q-1.65.54-3.8.54-1.14 0-2.22-.2-1.09-.2-2.09-.57t-1.85-.86-1.49-1.08l1.22-2.02q.24-.36.56-.56.32-.19.82-.19.49 0 .93.28.45.28 1.03.6.58.33 1.36.6.79.28 1.99.28.95 0 1.62-.22.68-.23 1.12-.59.44-.37.65-.85.2-.49.2-1 0-.78-.46-1.27t-1.23-.86q-.76-.37-1.74-.66t-2-.63-2-.81q-.98-.46-1.74-1.17t-1.23-1.74q-.46-1.03-.46-2.49 0-1.36.54-2.58.54-1.23 1.58-2.14 1.04-.92 2.6-1.46 1.56-.55 3.6-.55 2.28 0 4.15.75t3.12 1.98m25.48-11.42h5.8v31.09h-5.8v-13.59h-14.6v13.59h-5.81v-31.09h5.81v13.37h14.6zm25.58 9.03h5.31v22.06h-3.24q-1.06 0-1.34-.97l-.36-1.76q-1.36 1.38-2.99 2.22-1.63.85-3.85.85-1.8 0-3.19-.61t-2.33-1.73q-.95-1.12-1.43-2.65-.49-1.54-.49-3.39v-14.02h5.31v14.02q0 2.02.94 3.13.93 1.1 2.8 1.1 1.38 0 2.58-.61 1.21-.61 2.28-1.69zm15.87 6.45v9.89q.9 1.1 1.97 1.55 1.06.45 2.24.45 1.23 0 2.21-.44t1.66-1.38q.69-.93 1.06-2.38.36-1.45.36-3.48 0-3.63-1.2-5.25-1.21-1.63-3.46-1.63-1.53 0-2.67.7t-2.17 1.97m0-16.34v12.6q1.33-1.4 2.96-2.23 1.62-.82 3.7-.82 1.92 0 3.46.75 1.53.75 2.62 2.16 1.08 1.41 1.66 3.41.59 2 .59 4.49 0 2.69-.67 4.88t-1.9 3.75q-1.24 1.56-2.98 2.42t-3.87.86q-1.03 0-1.87-.2-.84-.21-1.55-.57-.71-.37-1.3-.89-.59-.53-1.13-1.18l-.24 1.49q-.13.56-.44.79-.31.24-.85.24h-3.5v-31.95zm36.16 16.49h4.32q1.6 0 2.78-.4 1.18-.39 1.96-1.14.79-.74 1.18-1.8.38-1.07.38-2.38 0-1.24-.38-2.26-.39-1.01-1.16-1.72-.78-.7-1.96-1.08t-2.8-.38h-4.32zm-5.78-15.63h10.1q3.12 0 5.4.73t3.76 2.04q1.49 1.32 2.21 3.14.72 1.83.72 4 0 2.26-.76 4.14-.75 1.88-2.25 3.24-1.51 1.35-3.78 2.1-2.26.76-5.3.76h-4.32v10.94h-5.78zm25.84-.86h5.31v31.95h-5.31zm22.28 26.25v-3.72q-2.3.11-3.87.4t-2.52.74-1.35 1.06q-.41.6-.41 1.31 0 1.39.83 2 .82.6 2.16.6 1.63 0 2.82-.59 1.2-.59 2.34-1.8m-11.23-11.59-.94-1.69q3.8-3.49 9.16-3.49 1.93 0 3.46.64 1.52.63 2.58 1.76 1.05 1.13 1.6 2.7t.55 3.44v13.93h-2.41q-.75 0-1.16-.23-.41-.22-.65-.91l-.47-1.59q-.84.75-1.63 1.32-.8.57-1.66.96t-1.84.59-2.16.2q-1.4 0-2.58-.37-1.18-.38-2.04-1.13t-1.33-1.87q-.48-1.12-.48-2.6 0-.84.28-1.67t.92-1.58q.63-.75 1.64-1.42t2.48-1.16q1.48-.49 3.43-.81 1.96-.31 4.48-.37v-1.29q0-2.22-.95-3.28-.95-1.07-2.73-1.07-1.29 0-2.14.31-.85.3-1.49.67-.65.38-1.18.68-.52.3-1.17.3-.56 0-.94-.29-.39-.29-.63-.68m37.18-4.77h4.25l-12.01 28.12q-.24.56-.62.85-.37.29-1.15.29h-3.95l4.12-8.86-8.92-20.4h4.67q.62 0 .98.3.35.3.52.69l4.69 11.44q.24.58.4 1.16t.31 1.18q.19-.6.39-1.19.19-.59.43-1.17l4.42-11.42q.18-.43.57-.71.4-.28.9-.28m11.09 8.49h10.02q0-1.03-.29-1.94-.29-.92-.87-1.6-.58-.69-1.47-1.09-.9-.4-2.08-.4-2.3 0-3.62 1.31-1.32 1.32-1.69 3.72m13.55 3.21h-13.66q.13 1.7.61 2.93.47 1.24 1.24 2.04.78.81 1.84 1.21t2.35.4 2.23-.3q.94-.31 1.63-.67.7-.37 1.23-.67t1.02-.3q.67 0 .99.5l1.53 1.93q-.89 1.03-1.98 1.73-1.1.7-2.29 1.12t-2.43.59-2.4.17q-2.3 0-4.28-.76-1.97-.76-3.44-2.26-1.46-1.49-2.3-3.7-.84-2.2-.84-5.1 0-2.26.74-4.25.73-1.99 2.09-3.46 1.37-1.47 3.33-2.33 1.97-.86 4.44-.86 2.09 0 3.85.66 1.77.67 3.03 1.95 1.27 1.28 1.99 3.14t.72 4.24q0 1.21-.26 1.63-.25.42-.98.42m9.91-10.37.32 2.5q1.03-1.98 2.45-3.11t3.35-1.13q1.53 0 2.46.67l-.35 3.98q-.11.38-.31.54-.2.17-.55.17-.32 0-.96-.11-.63-.11-1.23-.11-.88 0-1.57.26t-1.24.74-.96 1.17q-.42.69-.79 1.57v13.59h-5.31v-22.06h3.12q.81 0 1.14.29.32.29.43 1.04m26.01 1.06-1.2 1.91q-.22.34-.45.48-.24.14-.61.14-.38 0-.82-.21-.44-.22-1.02-.48-.58-.27-1.33-.49-.74-.21-1.75-.21-1.57 0-2.46.66-.89.67-.89 1.74 0 .71.46 1.2.46.48 1.22.85.77.36 1.74.65.96.29 1.96.64 1 .34 1.97.78t1.73 1.12 1.23 1.62q.46.95.46 2.28 0 1.59-.57 2.94-.57 1.34-1.69 2.32t-2.76 1.53q-1.65.54-3.8.54-1.14 0-2.22-.2-1.09-.2-2.09-.57t-1.85-.86-1.49-1.08l1.23-2.02q.23-.36.55-.56.33-.19.82-.19.5 0 .94.28t1.02.6q.58.33 1.36.6.79.28 1.99.28.95 0 1.62-.22.68-.23 1.12-.59.44-.37.65-.85.2-.49.2-1 0-.78-.46-1.27t-1.23-.86q-.76-.37-1.74-.66t-2-.63-2-.81q-.97-.46-1.74-1.17-.76-.71-1.22-1.74-.47-1.03-.47-2.49 0-1.36.54-2.58.54-1.23 1.58-2.14 1.05-.92 2.6-1.46 1.56-.55 3.61-.55 2.27 0 4.14.75 1.88.75 3.12 1.98m21.31 4.21h4.32q1.59 0 2.77-.4 1.19-.39 1.97-1.14.79-.74 1.17-1.8.39-1.07.39-2.38 0-1.24-.39-2.26-.38-1.01-1.16-1.72-.77-.7-1.95-1.08-1.19-.38-2.8-.38h-4.32zm-5.78-15.63h10.1q3.12 0 5.4.73t3.76 2.04q1.48 1.32 2.2 3.14.72 1.83.72 4 0 2.26-.75 4.14t-2.26 3.24q-1.5 1.35-3.77 2.1-2.27.76-5.3.76h-4.32v10.94h-5.78zm37.43 25.39v-3.72q-2.3.11-3.87.4t-2.52.74q-.94.45-1.35 1.06-.41.6-.41 1.31 0 1.39.83 2 .82.6 2.16.6 1.63 0 2.82-.59 1.2-.59 2.34-1.8m-11.23-11.59-.94-1.69q3.8-3.49 9.16-3.49 1.93 0 3.46.64 1.52.63 2.58 1.76 1.05 1.13 1.6 2.7t.55 3.44v13.93h-2.41q-.75 0-1.16-.23-.41-.22-.65-.91l-.47-1.59q-.84.75-1.63 1.32-.8.57-1.66.96t-1.84.59q-.97.2-2.16.2-1.39 0-2.58-.37-1.18-.38-2.04-1.13t-1.33-1.87q-.48-1.12-.48-2.6 0-.84.28-1.67t.92-1.58q.63-.75 1.64-1.42t2.49-1.16q1.47-.49 3.42-.81 1.96-.31 4.48-.37v-1.29q0-2.22-.95-3.28-.95-1.07-2.73-1.07-1.29 0-2.14.31-.85.3-1.49.67-.65.38-1.18.68-.52.3-1.17.3-.56 0-.94-.29-.39-.29-.63-.68m29.46 5.72q.99 0 1.72-.27.73-.26 1.21-.74.49-.47.73-1.14.25-.66.25-1.46 0-1.63-.98-2.59-.97-.96-2.93-.96t-2.94.96q-.97.96-.97 2.59 0 .77.24 1.44.25.67.73 1.15.49.49 1.23.75.74.27 1.71.27m6 12.56q0-.65-.39-1.05-.39-.41-1.05-.64-.67-.22-1.56-.33t-1.89-.16q-1-.06-2.07-.1-1.06-.04-2.07-.17-.88.49-1.43 1.16t-.55 1.55q0 .58.29 1.08.29.51.92.87.64.37 1.65.57 1.01.21 2.47.21 1.48 0 2.56-.23 1.07-.22 1.77-.62t1.02-.95q.33-.55.33-1.19m-1.06-22.3h6.35v1.98q0 .95-1.14 1.16l-1.98.37q.45 1.14.45 2.49 0 1.64-.66 2.96-.65 1.32-1.81 2.24-1.16.93-2.74 1.43-1.58.51-3.41.51-.65 0-1.25-.06-.6-.07-1.18-.18-1.03.63-1.03 1.4 0 .67.61.98t1.62.44 2.3.16 2.65.14q1.35.11 2.64.38t2.3.85 1.63 1.58q.61 1 .61 2.57 0 1.46-.72 2.83-.72 1.38-2.09 2.46-1.36 1.07-3.35 1.73-1.99.65-4.53.65-2.49 0-4.34-.48-1.85-.49-3.07-1.29-1.23-.81-1.83-1.86-.6-1.06-.6-2.19 0-1.55.93-2.6.94-1.04 2.57-1.66-.88-.45-1.4-1.21-.51-.75-.51-1.97 0-.5.18-1.03.18-.52.54-1.04.35-.51.89-.98.54-.46 1.27-.82-1.68-.91-2.64-2.41-.95-1.51-.95-3.53 0-1.63.65-2.95.66-1.33 1.83-2.26 1.17-.94 2.77-1.43 1.61-.5 3.5-.5 1.42 0 2.66.29 1.25.29 2.28.85m13.89 7.74h10.02q0-1.03-.29-1.94-.29-.92-.87-1.6-.58-.69-1.47-1.09t-2.08-.4q-2.3 0-3.62 1.31-1.32 1.32-1.69 3.72m13.55 3.21h-13.65q.12 1.7.6 2.93.47 1.24 1.24 2.04.78.81 1.84 1.21 1.07.4 2.36.4t2.22-.3q.94-.31 1.64-.67.69-.37 1.22-.67t1.02-.3q.67 0 .99.5l1.53 1.93q-.88 1.03-1.98 1.73t-2.29 1.12-2.43.59-2.4.17q-2.3 0-4.27-.76-1.98-.76-3.44-2.26-1.47-1.49-2.31-3.7-.83-2.2-.83-5.1 0-2.26.73-4.25t2.09-3.46q1.37-1.47 3.34-2.33 1.96-.86 4.44-.86 2.08 0 3.84.66 1.77.67 3.04 1.95 1.26 1.28 1.98 3.14t.72 4.24q0 1.21-.25 1.63-.26.42-.99.42m22.29-5.1h4.32q1.6 0 2.78-.4 1.18-.39 1.97-1.14.78-.74 1.17-1.8.38-1.07.38-2.38 0-1.24-.38-2.26-.39-1.01-1.16-1.72-.78-.7-1.96-1.08t-2.8-.38h-4.32zm-5.78-15.63h10.1q3.12 0 5.4.73t3.76 2.04q1.49 1.32 2.21 3.14.72 1.83.72 4 0 2.26-.75 4.14-.76 1.88-2.26 3.24-1.51 1.35-3.78 2.1-2.26.76-5.3.76h-4.32v10.94h-5.78zm25.84-.86h5.31v31.95h-5.31zm22.28 26.25v-3.72q-2.3.11-3.87.4t-2.52.74q-.94.45-1.35 1.06-.41.6-.41 1.31 0 1.39.83 2 .82.6 2.16.6 1.63 0 2.82-.59 1.2-.59 2.34-1.8m-11.23-11.59-.94-1.69q3.8-3.49 9.16-3.49 1.93 0 3.46.64 1.52.63 2.58 1.76 1.05 1.13 1.6 2.7t.55 3.44v13.93h-2.41q-.75 0-1.16-.23-.41-.22-.65-.91l-.47-1.59q-.84.75-1.63 1.32-.8.57-1.66.96t-1.84.59q-.97.2-2.16.2-1.39 0-2.58-.37-1.18-.38-2.04-1.13t-1.33-1.87q-.48-1.12-.48-2.6 0-.84.28-1.67t.92-1.58q.63-.75 1.64-1.42t2.49-1.16q1.47-.49 3.42-.81 1.96-.31 4.48-.37v-1.29q0-2.22-.95-3.28-.95-1.07-2.73-1.07-1.29 0-2.14.31-.85.3-1.49.67-.65.38-1.18.68-.52.3-1.17.3-.56 0-.94-.29-.39-.29-.63-.68m38.6-2.04-1.4 1.94q-.24.3-.46.47-.23.17-.66.17-.41 0-.79-.25-.39-.24-.93-.55-.54-.32-1.28-.56-.74-.25-1.84-.25-1.39 0-2.45.5-1.05.51-1.75 1.46-.7.94-1.04 2.29-.35 1.34-.35 3.04 0 1.76.38 3.14.38 1.37 1.09 2.31.7.93 1.72 1.42 1.01.48 2.27.48 1.27 0 2.06-.31.78-.31 1.32-.69t.93-.69q.4-.31.9-.31.64 0 .96.5l1.53 1.93q-.88 1.03-1.91 1.73t-2.14 1.12-2.28.59-2.33.17q-2.05 0-3.85-.76-1.81-.76-3.16-2.23-1.36-1.46-2.14-3.58-.79-2.11-.79-4.82 0-2.43.7-4.51.7-2.07 2.06-3.59 1.35-1.51 3.35-2.37t4.6-.86q2.47 0 4.33.79 1.86.8 3.35 2.28m7.71 5.76h10.02q0-1.03-.29-1.94-.29-.92-.87-1.6-.58-.69-1.47-1.09t-2.07-.4q-2.31 0-3.63 1.31-1.32 1.32-1.69 3.72m13.55 3.21h-13.65q.13 1.7.6 2.93.47 1.24 1.25 2.04.77.81 1.83 1.21 1.07.4 2.36.4t2.22-.3q.94-.31 1.64-.67.7-.37 1.22-.67.53-.3 1.02-.3.67 0 .99.5l1.53 1.93q-.88 1.03-1.98 1.73-1.09.7-2.29 1.12-1.19.42-2.43.59-1.23.17-2.39.17-2.3 0-4.28-.76t-3.44-2.26q-1.46-1.49-2.3-3.7-.84-2.2-.84-5.1 0-2.26.73-4.25t2.1-3.46q1.36-1.47 3.33-2.33t4.44-.86q2.08 0 3.85.66 1.76.67 3.03 1.95t1.99 3.14.72 4.24q0 1.21-.26 1.63t-.99.42m10.53-21.59v12.26q1.29-1.21 2.84-1.96t3.64-.75q1.8 0 3.2.61t2.33 1.72q.94 1.11 1.42 2.64.49 1.54.49 3.39v14.04h-5.32v-14.04q0-2.02-.92-3.13t-2.82-1.11q-1.37 0-2.58.63-1.2.62-2.28 1.7v15.95h-5.31v-31.95zm28.71 9.55q2.45 0 4.46.79 2.01.8 3.44 2.26t2.2 3.57q.78 2.11.78 4.71 0 2.62-.78 4.73-.77 2.1-2.2 3.59-1.43 1.48-3.44 2.28-2.01.79-4.46.79-2.48 0-4.5-.79-2.02-.8-3.45-2.28-1.43-1.49-2.21-3.59-.79-2.11-.79-4.73 0-2.6.79-4.71.78-2.11 2.21-3.57t3.45-2.26q2.02-.79 4.5-.79m0 18.64q2.75 0 4.07-1.85t1.32-5.42-1.32-5.44-4.07-1.87q-2.8 0-4.14 1.88-1.35 1.88-1.35 5.43t1.35 5.41q1.34 1.86 4.14 1.86m15-28.19h5.31v31.95h-5.31zm24.47 25.41v-9.89q-.9-1.09-1.97-1.54-1.06-.46-2.29-.46-1.2 0-2.17.46-.96.45-1.65 1.36t-1.06 2.32q-.36 1.41-.36 3.32 0 1.94.31 3.28.31 1.35.89 2.2t1.42 1.22q.84.38 1.87.38 1.66 0 2.82-.69t2.19-1.96m0-25.41h5.31v31.95h-3.24q-1.06 0-1.34-.97l-.45-2.13q-1.33 1.53-3.06 2.48-1.73.94-4.03.94-1.81 0-3.32-.75-1.5-.75-2.59-2.18-1.08-1.43-1.67-3.54t-.59-4.82q0-2.45.66-4.55.67-2.11 1.92-3.66 1.24-1.55 2.98-2.42 1.75-.87 3.92-.87 1.85 0 3.16.58t2.34 1.57zm14.75 18.38h10.02q0-1.03-.29-1.94-.29-.92-.87-1.6-.58-.69-1.47-1.09-.9-.4-2.08-.4-2.3 0-3.62 1.31-1.32 1.32-1.69 3.72m13.55 3.21h-13.66q.13 1.7.6 2.93.48 1.24 1.25 2.04.78.81 1.84 1.21t2.35.4 2.23-.3q.93-.31 1.63-.67.7-.37 1.23-.67t1.02-.3q.67 0 .99.5l1.53 1.93q-.89 1.03-1.98 1.73-1.1.7-2.29 1.12-1.2.42-2.43.59-1.24.17-2.4.17-2.3 0-4.28-.76t-3.44-2.26q-1.46-1.49-2.3-3.7-.84-2.2-.84-5.1 0-2.26.73-4.25.74-1.99 2.1-3.46 1.37-1.47 3.33-2.33 1.97-.86 4.44-.86 2.09 0 3.85.66 1.76.67 3.03 1.95t1.99 3.14.72 4.24q0 1.21-.26 1.63-.25.42-.98.42m9.91-10.37.32 2.5q1.03-1.98 2.45-3.11t3.35-1.13q1.53 0 2.46.67l-.35 3.98q-.11.38-.31.54-.2.17-.55.17-.32 0-.96-.11-.63-.11-1.23-.11-.88 0-1.57.26t-1.24.74-.97 1.17q-.41.69-.78 1.57v13.59h-5.31v-22.06h3.12q.81 0 1.14.29.32.29.43 1.04"/></svg>