<svg xmlns="http://www.w3.org/2000/svg" width="1200" height="700" viewBox="0 0 1200 700"><rect width="100%" height="100%" fill="#1b263b"/><path fill="#ffffff" d="M259.53 332.94h6.48v34.7h-6.48v-15.17h-16.29v15.17h-6.48v-34.7h6.48v14.92h16.29zm28.56 10.08h5.93v24.62h-3.62q-1.18 0-1.49-1.08l-.41-1.97q-1.51 1.54-3.33 2.49-1.83.94-4.3.94-2.02 0-3.56-.68-1.55-.68-2.61-1.93-1.05-1.25-1.59-2.97-.54-1.71-.54-3.78v-15.64h5.92v15.64q0 2.26 1.05 3.5 1.04 1.23 3.13 1.23 1.54 0 2.88-.68 1.34-.69 2.54-1.89zm28.16 2.66-1.35 2.14q-.24.38-.5.54-.27.15-.67.15-.44 0-.93-.24t-1.14-.54-1.47-.54q-.83-.24-1.96-.24-1.75 0-2.75.75-.99.74-.99 1.94 0 .79.51 1.33.52.54 1.37.95t1.93.73q1.08.33 2.2.71 1.11.38 2.19.88 1.08.49 1.94 1.24.85.76 1.36 1.82.52 1.05.52 2.54 0 1.78-.64 3.28-.63 1.5-1.88 2.59t-3.08 1.7q-1.84.61-4.24.61-1.27 0-2.48-.22-1.22-.23-2.33-.64-1.12-.41-2.07-.96-.94-.55-1.66-1.2l1.36-2.26q.27-.4.63-.62t.91-.22 1.04.32q.5.31 1.14.67.65.36 1.53.67.87.31 2.22.31 1.05 0 1.81-.25t1.25-.66.72-.95.23-1.11q0-.87-.52-1.42t-1.37-.96-1.94-.73q-1.09-.33-2.23-.71t-2.24-.9q-1.09-.52-1.94-1.31t-1.37-1.94q-.51-1.15-.51-2.79 0-1.51.6-2.88.6-1.36 1.76-2.38t2.9-1.64q1.74-.61 4.02-.61 2.55 0 4.64.84 2.08.84 3.48 2.21m4.72-13.7h5.93v20.42h1.11q.6 0 .94-.16.35-.15.71-.63l6.12-7.56q.39-.51.85-.77.47-.26 1.22-.26h5.42l-7.66 9.14q-.81 1.08-1.77 1.66.5.36.9.84.39.48.75 1.03l8.21 11.95h-5.35q-.7 0-1.2-.23t-.84-.83l-6.29-9.33q-.33-.55-.69-.72t-1.08-.17h-1.35v11.28h-5.93zm25.85 11.04h5.95v24.62h-5.95zm6.77-7.18q0 .77-.31 1.44t-.83 1.18q-.52.5-1.21.8-.7.3-1.49.3-.77 0-1.45-.3-.69-.3-1.19-.8-.5-.51-.8-1.18t-.3-1.44q0-.79.3-1.49.3-.69.8-1.2.5-.5 1.19-.8.68-.3 1.45-.3.79 0 1.49.3.69.3 1.21.8.52.51.83 1.2.31.7.31 1.49m9.91 16.66h11.19q0-1.16-.33-2.18-.32-1.02-.97-1.78-.65-.77-1.64-1.22-1-.44-2.32-.44-2.57 0-4.04 1.46-1.48 1.47-1.89 4.16m15.12 3.57h-15.24q.15 1.9.67 3.28.53 1.38 1.4 2.28.86.9 2.05 1.34 1.19.45 2.63.45t2.48-.34 1.82-.74q.78-.41 1.37-.75.59-.33 1.14-.33.75 0 1.11.55l1.7 2.16q-.98 1.15-2.21 1.93-1.22.78-2.55 1.25-1.34.47-2.72.66t-2.67.19q-2.57 0-4.78-.85t-3.84-2.52-2.57-4.13q-.93-2.46-.93-5.7 0-2.52.81-4.74.82-2.22 2.34-3.86 1.53-1.65 3.72-2.61 2.2-.96 4.96-.96 2.33 0 4.3.75 1.96.74 3.38 2.17t2.22 3.5q.8 2.08.8 4.74 0 1.35-.28 1.81-.29.47-1.11.47m22.2-10.39-1.34 2.14q-.24.38-.51.54-.26.15-.67.15-.43 0-.92-.24t-1.14-.54-1.48-.54-1.95-.24q-1.76 0-2.75.75-1 .74-1 1.94 0 .79.52 1.33.51.54 1.37.95.85.41 1.93.73 1.08.33 2.19.71 1.12.38 2.2.88 1.08.49 1.93 1.24.85.76 1.37 1.82.52 1.05.52 2.54 0 1.78-.64 3.28t-1.88 2.59q-1.25 1.09-3.09 1.7-1.83.61-4.23.61-1.28 0-2.49-.22-1.21-.23-2.33-.64-1.11-.41-2.06-.96t-1.67-1.2l1.37-2.26q.26-.4.62-.62t.92-.22q.55 0 1.04.32.49.31 1.14.67t1.52.67q.88.31 2.22.31 1.06 0 1.82-.25.75-.25 1.24-.66.5-.41.72-.95.23-.54.23-1.11 0-.87-.51-1.42-.52-.55-1.37-.96t-1.95-.73q-1.09-.33-2.23-.71t-2.23-.9-1.94-1.31q-.86-.79-1.37-1.94-.52-1.15-.52-2.79 0-1.51.6-2.88.6-1.36 1.77-2.38 1.16-1.02 2.9-1.64 1.74-.61 4.02-.61 2.54 0 4.63.84t3.48 2.21m28.44-12.74h6.48v34.7h-6.48v-15.17h-16.29v15.17h-6.48v-34.7h6.48v14.92h16.29zm28.56 10.08h5.93v24.62h-3.62q-1.18 0-1.49-1.08l-.41-1.97q-1.51 1.54-3.34 2.49-1.82.94-4.29.94-2.02 0-3.57-.68-1.54-.68-2.6-1.93t-1.6-2.97q-.54-1.71-.54-3.78v-15.64h5.93v15.64q0 2.26 1.05 3.5 1.04 1.23 3.13 1.23 1.53 0 2.88-.68 1.34-.69 2.54-1.89zm17.71 7.2v11.04q1.01 1.22 2.2 1.72 1.19.51 2.51.51 1.37 0 2.46-.49 1.09-.5 1.86-1.54t1.17-2.66q.41-1.62.41-3.88 0-4.06-1.34-5.87-1.35-1.81-3.87-1.81-1.7 0-2.97.78t-2.43 2.2m0-18.24v14.06q1.49-1.56 3.3-2.48 1.82-.93 4.14-.93 2.14 0 3.86.84 1.71.84 2.92 2.41 1.22 1.58 1.86 3.81.65 2.23.65 5.01 0 3-.74 5.45-.75 2.45-2.13 4.19t-3.32 2.7-4.32.96q-1.15 0-2.09-.23-.93-.23-1.73-.63-.79-.41-1.45-1t-1.26-1.31l-.26 1.66q-.15.62-.49.89-.35.26-.95.26h-3.91v-35.66zm54 4.22-1.6 3.05q-.29.5-.62.73-.32.23-.8.23-.5 0-1.09-.37-.59-.38-1.41-.83-.81-.46-1.9-.83-1.1-.37-2.58-.37-1.35 0-2.36.32-1 .33-1.69.9-.68.58-1.02 1.38-.33.81-.33 1.77 0 1.22.68 2.04.68.81 1.81 1.39 1.13.57 2.57 1.03t2.95.97q1.51.52 2.95 1.2 1.44.69 2.57 1.73t1.81 2.56q.69 1.51.69 3.67 0 2.35-.81 4.4-.8 2.05-2.35 3.58-1.55 1.52-3.78 2.4-2.23.87-5.11.87-1.66 0-3.26-.32-1.61-.32-3.09-.92-1.47-.6-2.77-1.44t-2.3-1.88l1.89-3.09q.24-.34.63-.57.38-.22.81-.22.6 0 1.3.49.69.49 1.65 1.09t2.25 1.09q1.28.49 3.08.49 2.76 0 4.27-1.3 1.52-1.31 1.52-3.76 0-1.37-.69-2.23-.68-.87-1.81-1.45-1.13-.59-2.57-1t-2.93-.89q-1.48-.48-2.92-1.15t-2.57-1.75-1.81-2.7q-.69-1.62-.69-4 0-1.89.76-3.69.75-1.8 2.19-3.2 1.44-1.39 3.56-2.23 2.11-.84 4.84-.84 3.08 0 5.67.96t4.41 2.69m24.51 9.86-1.56 2.16q-.27.34-.52.53t-.73.19q-.46 0-.89-.27-.43-.28-1.03-.63-.6-.34-1.43-.62t-2.05-.28q-1.56 0-2.74.57-1.17.56-1.95 1.62-.78 1.05-1.17 2.55-.38 1.5-.38 3.4 0 1.97.42 3.5.42 1.54 1.21 2.58.79 1.05 1.92 1.59t2.55.54q1.41 0 2.29-.35.87-.35 1.47-.77t1.05-.77q.44-.34.99-.34.72 0 1.08.55l1.71 2.16q-.99 1.15-2.14 1.93t-2.39 1.25q-1.23.47-2.54.66t-2.6.19q-2.28 0-4.3-.85t-3.53-2.49q-1.51-1.63-2.39-3.99-.87-2.37-.87-5.39 0-2.71.78-5.03.78-2.31 2.29-4.01 1.51-1.69 3.74-2.65 2.24-.96 5.14-.96 2.76 0 4.84.89 2.07.89 3.73 2.54m9.86-14.08v13.68q1.44-1.35 3.17-2.19t4.06-.84q2.01 0 3.57.69 1.56.68 2.61 1.92 1.04 1.23 1.58 2.95.54 1.71.54 3.78v15.67h-5.93v-15.67q0-2.26-1.03-3.49-1.03-1.24-3.14-1.24-1.54 0-2.88.7-1.35.69-2.55 1.89v17.81h-5.93v-35.66zm25.83 20.52h11.18q0-1.16-.32-2.18-.33-1.02-.98-1.78-.64-.77-1.64-1.22-1-.44-2.32-.44-2.56 0-4.04 1.46-1.48 1.47-1.88 4.16m15.12 3.57h-15.24q.14 1.9.67 3.28t1.39 2.28 2.05 1.34q1.19.45 2.63.45t2.48-.34q1.05-.34 1.83-.74.78-.41 1.37-.75.58-.33 1.14-.33.74 0 1.1.55l1.7 2.16q-.98 1.15-2.2 1.93-1.23.78-2.56 1.25t-2.71.66-2.68.19q-2.57 0-4.77-.85-2.21-.85-3.84-2.52-1.64-1.67-2.57-4.13-.94-2.46-.94-5.7 0-2.52.82-4.74.81-2.22 2.34-3.86 1.52-1.65 3.72-2.61 2.19-.96 4.95-.96 2.33 0 4.3.75 1.97.74 3.38 2.17 1.42 1.43 2.22 3.5.81 2.08.81 4.74 0 1.35-.29 1.81-.29.47-1.1.47m21.28 4.27V349.3q-1-1.22-2.19-1.72-1.19-.51-2.56-.51-1.34 0-2.42.51-1.08.5-1.85 1.52t-1.18 2.59q-.4 1.57-.4 3.71 0 2.16.34 3.66.35 1.5 1 2.45t1.58 1.37q.94.42 2.09.42 1.85 0 3.15-.77 1.29-.77 2.44-2.19m0-28.36h5.93v35.66h-3.62q-1.18 0-1.49-1.08l-.5-2.38q-1.49 1.71-3.42 2.76-1.94 1.06-4.5 1.06-2.02 0-3.7-.84t-2.89-2.44q-1.21-1.59-1.87-3.94-.66-2.36-.66-5.38 0-2.74.74-5.09t2.14-4.08q1.39-1.73 3.33-2.7 1.95-.97 4.37-.97 2.06 0 3.53.65 1.46.65 2.61 1.75zm27.08 11.04h5.92v24.62h-3.62q-1.18 0-1.49-1.08l-.41-1.97q-1.51 1.54-3.33 2.49-1.83.94-4.3.94-2.01 0-3.56-.68t-2.61-1.93q-1.05-1.25-1.59-2.97-.54-1.71-.54-3.78v-15.64h5.93v15.64q0 2.26 1.04 3.5 1.04 1.23 3.13 1.23 1.54 0 2.88-.68 1.35-.69 2.55-1.89zm11.85-11.04h5.93v35.66h-5.93zm16.54 20.52h11.18q0-1.16-.32-2.18-.33-1.02-.97-1.78-.65-.77-1.65-1.22-.99-.44-2.31-.44-2.57 0-4.05 1.46-1.47 1.47-1.88 4.16m15.12 3.57h-15.24q.14 1.9.67 3.28t1.39 2.28q.87.9 2.05 1.34 1.19.45 2.63.45t2.49-.34q1.04-.34 1.82-.74.78-.41 1.37-.75.59-.33 1.14-.33.74 0 1.1.55l1.71 2.16q-.99 1.15-2.21 1.93-1.23.78-2.56 1.25t-2.71.66-2.68.19q-2.56 0-4.77-.85t-3.84-2.52-2.57-4.13-.94-5.7q0-2.52.82-4.74t2.34-3.86q1.52-1.65 3.72-2.61t4.96-.96q2.32 0 4.29.75 1.97.74 3.39 2.17 1.41 1.43 2.22 3.5.8 2.08.8 4.74 0 1.35-.29 1.81-.29.47-1.1.47m24.89-5.69h4.82q1.78 0 3.1-.44t2.19-1.27q.88-.83 1.31-2.02t.43-2.65q0-1.39-.43-2.52t-1.3-1.92q-.86-.79-2.18-1.21t-3.12-.42h-4.82zm-6.46-17.44h11.28q3.48 0 6.02.81 2.55.82 4.2 2.28 1.66 1.47 2.46 3.51.81 2.04.81 4.46 0 2.52-.84 4.62t-2.52 3.61-4.21 2.35q-2.54.84-5.92.84h-4.82v12.22h-6.46zm28.85-.96h5.93v35.66H744zm24.86 29.3v-4.15q-2.57.12-4.32.44-1.75.33-2.81.83-1.05.5-1.51 1.18-.45.67-.45 1.46 0 1.56.92 2.23t2.41.67q1.83 0 3.16-.66t2.6-2m-12.53-12.94-1.05-1.89q4.25-3.89 10.22-3.89 2.16 0 3.87.71 1.7.71 2.88 1.97 1.17 1.26 1.78 3.01.62 1.75.62 3.84v15.55h-2.69q-.84 0-1.3-.25-.45-.25-.72-1.02l-.53-1.78q-.93.84-1.82 1.48-.89.63-1.85 1.07-.96.43-2.05.66-1.09.22-2.41.22-1.56 0-2.88-.42t-2.28-1.26-1.49-2.08q-.53-1.25-.53-2.91 0-.93.31-1.86.32-.92 1.02-1.76.71-.84 1.84-1.59 1.13-.74 2.77-1.29 1.65-.55 3.83-.9t4.99-.42v-1.44q0-2.47-1.05-3.66-1.06-1.19-3.05-1.19-1.44 0-2.39.34-.95.33-1.67.75t-1.31.76q-.58.33-1.3.33-.63 0-1.06-.32t-.7-.76m43.08-2.28-1.56 2.16q-.26.34-.51.53t-.73.19q-.46 0-.89-.27-.43-.28-1.03-.63-.6-.34-1.43-.62t-2.05-.28q-1.56 0-2.74.57-1.18.56-1.96 1.62-.78 1.05-1.16 2.55t-.38 3.4q0 1.97.42 3.5.42 1.54 1.21 2.58.79 1.05 1.92 1.59t2.54.54q1.42 0 2.29-.35.88-.35 1.48-.77t1.04-.77q.45-.34 1-.34.72 0 1.08.55l1.7 2.16q-.98 1.15-2.13 1.93t-2.39 1.25-2.54.66q-1.31.19-2.61.19-2.28 0-4.29-.85-2.02-.85-3.53-2.49-1.51-1.63-2.39-3.99-.88-2.37-.88-5.39 0-2.71.78-5.03.78-2.31 2.3-4.01 1.51-1.69 3.74-2.65t5.14-.96q2.76 0 4.83.89 2.08.89 3.73 2.54m8.62 6.44h11.18q0-1.16-.32-2.18t-.97-1.78q-.65-.77-1.65-1.22-.99-.44-2.31-.44-2.57 0-4.05 1.46-1.47 1.47-1.88 4.16m15.12 3.57h-15.24q.14 1.9.67 3.28t1.39 2.28q.87.9 2.06 1.34 1.18.45 2.62.45t2.49-.34q1.04-.34 1.82-.74.78-.41 1.37-.75.59-.33 1.14-.33.74 0 1.1.55l1.71 2.16q-.99 1.15-2.21 1.93t-2.56 1.25q-1.33.47-2.71.66t-2.67.19q-2.57 0-4.78-.85t-3.84-2.52-2.57-4.13q-.93-2.46-.93-5.7 0-2.52.81-4.74.82-2.22 2.34-3.86 1.53-1.65 3.72-2.61 2.2-.96 4.96-.96 2.33 0 4.29.75 1.97.74 3.39 2.17 1.41 1.43 2.22 3.5.8 2.08.8 4.74 0 1.35-.29 1.81-.28.47-1.1.47m11.76-24.09v13.68q1.44-1.35 3.17-2.19t4.05-.84q2.02 0 3.58.69 1.56.68 2.6 1.92 1.05 1.23 1.59 2.95.54 1.71.54 3.78v15.67h-5.93v-15.67q0-2.26-1.03-3.49-1.03-1.24-3.15-1.24-1.53 0-2.88.7-1.34.69-2.54 1.89v17.81h-5.93v-35.66zm32.04 10.65q2.74 0 4.98.89t3.84 2.52 2.46 3.98q.86 2.36.86 5.26 0 2.93-.86 5.28t-2.46 4.01q-1.6 1.65-3.84 2.54t-4.98.89q-2.76 0-5.02-.89-2.25-.89-3.85-2.54-1.59-1.66-2.47-4.01t-.88-5.28q0-2.9.88-5.26.88-2.35 2.47-3.98 1.6-1.63 3.85-2.52 2.26-.89 5.02-.89m0 20.81q3.07 0 4.55-2.06 1.47-2.07 1.47-6.05 0-3.99-1.47-6.07-1.48-2.09-4.55-2.09-3.12 0-4.62 2.1t-1.5 6.06 1.5 6.03q1.5 2.08 4.62 2.08m16.75-31.46h5.93v35.66h-5.93zm27.31 28.36V349.3q-1-1.22-2.19-1.72-1.19-.51-2.56-.51-1.34 0-2.42.51-1.08.5-1.85 1.52t-1.18 2.59q-.4 1.57-.4 3.71 0 2.16.34 3.66.35 1.5 1 2.45t1.58 1.37q.94.42 2.09.42 1.85 0 3.15-.77 1.29-.77 2.44-2.19m0-28.36h5.93v35.66h-3.62q-1.18 0-1.49-1.08l-.5-2.38q-1.49 1.71-3.42 2.76-1.94 1.06-4.5 1.06-2.02 0-3.7-.84t-2.89-2.44q-1.21-1.59-1.87-3.94-.66-2.36-.66-5.38 0-2.74.74-5.09t2.14-4.08q1.39-1.73 3.33-2.7 1.95-.97 4.37-.97 2.06 0 3.53.65 1.46.65 2.61 1.75zm16.47 20.52h11.18q0-1.16-.32-2.18-.33-1.02-.97-1.78-.65-.77-1.65-1.22-.99-.44-2.31-.44-2.57 0-4.05 1.46-1.47 1.47-1.88 4.16m15.12 3.57h-15.24q.14 1.9.67 3.28t1.39 2.28q.87.9 2.05 1.34 1.19.45 2.63.45t2.49-.34q1.04-.34 1.82-.74.78-.41 1.37-.75.59-.33 1.14-.33.74 0 1.1.55l1.71 2.16q-.99 1.15-2.21 1.93-1.23.78-2.56 1.25t-2.71.66-2.68.19q-2.56 0-4.77-.85t-3.84-2.52-2.57-4.13-.94-5.7q0-2.52.82-4.74t2.34-3.86q1.52-1.65 3.72-2.61t4.96-.96q2.32 0 4.29.75 1.97.74 3.39 2.17 1.41 1.43 2.22 3.5.8 2.08.8 4.74 0 1.35-.29 1.81-.29.47-1.1.47m11.06-11.57.36 2.79q1.15-2.21 2.74-3.47 1.58-1.26 3.74-1.26 1.71 0 2.74.74l-.39 4.44q-.12.44-.34.62-.23.18-.62.18-.36 0-1.06-.12-.71-.12-1.38-.12-.99 0-1.76.28-.76.29-1.38.83-.61.54-1.08 1.31-.46.77-.87 1.75v15.17h-5.93v-24.62h3.48q.91 0 1.27.32t.48 1.16"/></svg>